<svg width="29" height="29" viewBox="0 0 29 29" fill="none" xmlns="http://www.w3.org/2000/svg">
<path d="M26.9826 14.5C26.9826 7.64317 21.3568 2.01739 14.5 2.01739C7.64317 2.01739 2.01739 7.64317 2.01739 14.5C2.01739 21.3568 7.64317 26.9826 14.5 26.9826C21.3568 26.9826 26.9826 21.3568 26.9826 14.5ZM29 14.5C29 22.471 22.471 29 14.5 29C6.529 29 0 22.471 0 14.5C0 6.529 6.529 0 14.5 0C22.471 0 29 6.529 29 14.5Z" fill="#724B00"/>
<path d="M17.1983 15.1557H14.8026V22.847H11.247V15.1557H9.55739V12.1296H11.247V10.1878C11.247 8.80087 11.9026 6.60696 14.8278 6.60696H17.4504V9.53217H15.5339C15.2313 9.53217 14.7774 9.68348 14.7774 10.3643V12.1296H17.4757L17.1983 15.1557Z" fill="#724B00"/>
</svg>
