<svg width="29" height="29" viewBox="0 0 29 29" fill="none" xmlns="http://www.w3.org/2000/svg">
<path d="M26.9826 14.5C26.9826 7.64317 21.3568 2.01739 14.5 2.01739C7.64317 2.01739 2.01739 7.64317 2.01739 14.5C2.01739 21.3568 7.64317 26.9826 14.5 26.9826C21.3568 26.9826 26.9826 21.3568 26.9826 14.5ZM29 14.5C29 22.471 22.471 29 14.5 29C6.529 29 0 22.471 0 14.5C0 6.529 6.529 0 14.5 0C22.471 0 29 6.529 29 14.5Z" fill="#724B00"/>
<path d="M14.4975 7C11.4602 7 9 9.57688 9 12.7582C9 16.6553 12.0373 20.1124 13.5964 21.6341C14.1026 22.1272 14.8873 22.1219 15.3884 21.6182C16.9425 20.054 20 16.5016 20 12.7635C20 9.57687 17.5347 7 14.4975 7ZM14.4975 15.176C13.2218 15.176 12.1891 14.0944 12.1891 12.7582C12.1891 11.422 13.2218 10.3404 14.4975 10.3404C15.7731 10.3404 16.8058 11.422 16.8058 12.7582C16.8058 14.0944 15.7731 15.176 14.4975 15.176Z" fill="#724B00"/>
</svg>
