<svg width="262" height="135" viewBox="0 0 262 135" fill="none" xmlns="http://www.w3.org/2000/svg">
<path d="M116.883 50.0987C116.883 49.2996 117.082 48.7003 117.678 48.101C118.275 47.5017 119.07 47.3019 120.263 47.3019C121.455 47.3019 122.251 47.5017 122.847 48.101C123.443 48.7003 123.642 49.2996 123.642 50.0987V69.2764C123.642 71.6736 123.245 74.0708 122.251 76.2683C121.257 78.6655 119.865 80.6632 118.076 82.4611C116.287 84.259 114.1 85.8571 111.317 86.856C108.733 88.0546 105.751 88.6539 102.371 88.6539C100.781 88.6539 99.1905 88.4541 97.7989 88.0546C96.4073 87.655 95.2146 87.0557 94.4194 86.2567C93.4254 85.4576 92.6302 84.6585 92.2327 83.6597C91.6363 82.6608 91.4375 81.662 91.4375 80.4634C91.4375 79.065 91.8351 78.0662 92.6302 77.0673C93.4254 76.468 94.4194 75.8687 95.4134 75.8687C97.4013 75.8687 98.3953 76.6678 98.3953 78.4657C98.3953 80.6632 98.9917 82.2613 100.184 83.2601C101.377 84.259 102.769 84.8583 104.956 84.8583C106.943 84.8583 108.534 84.4587 110.124 83.6597C111.715 82.8606 112.907 81.8618 113.901 80.6632C114.895 79.4646 115.69 77.8664 116.287 76.2683C116.883 74.6701 117.082 72.8722 117.082 70.8745V50.0987H116.883Z" fill="#724B00"/>
<path d="M157.633 80.0639C155.844 83.0604 153.657 85.2578 151.073 86.6562C148.488 88.0546 145.705 88.8536 142.525 88.8536C138.549 88.8536 135.567 88.0546 133.579 86.4564C131.591 84.8583 130.597 82.8606 130.597 80.2636C130.597 78.8652 130.796 77.4669 131.392 76.0685C131.79 74.4704 132.585 72.8722 133.38 71.4738C134.175 69.8757 135.169 68.2776 136.561 66.8792C137.754 65.281 139.145 63.8827 140.537 62.6841C140.934 62.2845 141.531 61.885 141.729 61.6852C142.127 61.4855 142.525 61.4855 142.922 61.4855C143.519 61.4855 143.916 61.6852 144.314 62.0848C144.711 62.4843 144.91 62.8838 144.91 63.2834C144.91 63.4831 144.91 63.6829 144.711 63.8827C144.711 64.0824 144.314 64.482 144.115 64.6817C143.121 65.8803 142.127 67.0789 141.332 68.2776C140.537 69.4762 139.94 70.6748 139.344 71.8734C138.748 73.072 138.35 74.2706 138.151 75.2694C137.754 76.2683 137.754 77.2671 137.754 78.266C137.754 80.4634 138.35 82.2613 139.543 83.2601C140.736 84.4587 142.326 84.8583 144.314 84.8583C145.904 84.8583 147.693 84.4587 149.284 83.6597C150.874 82.8606 152.266 81.8618 153.458 80.6632C154.651 79.2648 155.645 77.8664 156.44 76.0685C157.235 74.2706 157.633 72.2729 157.633 70.2752V64.482C157.633 63.6829 157.832 63.0836 158.428 62.6841C158.826 62.0848 159.82 61.885 161.013 61.885C162.205 61.885 163 62.0848 163.398 62.6841C163.796 63.2834 164.193 63.8827 164.193 64.482V85.8571C164.193 86.6562 163.994 87.2555 163.398 87.655C163 88.2543 162.205 88.4541 161.013 88.4541C159.82 88.4541 159.025 88.2543 158.627 87.655C158.229 87.0557 157.832 86.4564 157.832 85.8571V80.0639H157.633Z" fill="#724B00"/>
<path d="M183.279 84.6585C185.665 84.6585 187.454 84.259 188.647 83.2601C189.84 82.4611 190.436 81.4622 190.436 80.6632C190.436 80.0639 190.237 79.4645 189.641 78.8652C189.243 78.4657 188.249 77.8664 186.858 77.4669L179.701 75.2694C177.912 74.6701 176.52 73.871 175.725 73.072C174.93 72.0731 174.532 71.0743 174.532 69.8757C174.532 68.6771 174.731 67.6783 175.328 66.6794C175.924 65.6806 176.719 64.6817 177.912 63.8827C179.105 63.0836 180.496 62.4843 182.285 61.885C184.075 61.4854 186.062 61.0859 188.448 61.0859C192.026 61.0859 194.611 61.6852 196.599 62.6841C198.587 63.6829 199.581 64.8815 199.581 66.0801C199.581 66.8792 199.382 67.6783 198.785 68.2776C198.189 68.8769 197.394 69.2764 196.4 69.2764C195.207 69.2764 194.412 68.8769 193.815 68.2776C192.623 66.8792 191.43 65.8803 190.436 65.281C189.442 64.6817 188.249 64.482 186.858 64.482C185.267 64.482 183.876 64.8815 182.683 65.6806C181.689 66.4796 181.093 67.2787 181.093 68.2776C181.093 68.8769 181.291 69.4762 181.888 69.8757C182.484 70.2752 183.478 70.8745 185.069 71.2741L191.43 73.2718C193.418 73.871 195.008 74.6701 195.803 75.669C196.599 76.6678 197.195 77.8664 197.195 79.2648C197.195 80.2636 196.797 81.2625 196.201 82.2613C195.605 83.2601 194.611 84.259 193.219 85.2578C191.828 86.2567 190.237 86.856 188.448 87.4553C186.659 88.0546 184.472 88.4541 181.888 88.4541C180.099 88.4541 178.508 88.2543 176.918 87.8548C175.526 87.4553 174.135 86.856 173.141 86.2567C172.147 85.6573 171.352 84.8583 170.755 83.8594C170.159 82.8606 169.96 82.0615 169.96 81.0627C169.96 79.8641 170.159 79.065 170.755 78.4657C171.153 77.8664 171.948 77.4669 172.942 77.4669C173.737 77.4669 174.334 77.6666 174.731 78.0662C175.328 78.4657 175.725 79.2648 176.123 80.2636C176.719 81.662 177.514 82.6608 178.508 83.2601C179.9 84.4587 181.291 84.6585 183.279 84.6585Z" fill="#724B00"/>
<path d="M217.273 88.8536C215.881 88.8536 214.49 88.6539 213.297 88.2543C212.104 87.8548 211.11 87.2555 210.116 86.6562C209.122 86.0569 208.526 85.0581 208.128 84.259C207.731 83.2601 207.333 82.2613 207.333 81.0627C207.333 80.0639 207.333 79.2648 207.532 78.6655C207.731 78.0662 207.731 77.4669 207.731 76.468V66.2799H204.749C203.556 66.2799 202.96 65.6806 202.96 64.2822C202.96 62.8838 203.556 62.2845 204.749 62.2845H207.731V47.5017C207.731 46.7026 207.929 46.1033 208.526 45.7038C209.122 45.3043 209.917 44.9047 210.911 44.9047C212.104 44.9047 212.899 45.1045 213.496 45.7038C213.893 46.3031 214.291 46.9024 214.291 47.5017V62.2845H222.64C223.833 62.2845 224.429 62.8838 224.429 64.2822C224.429 65.6806 223.833 66.2799 222.64 66.2799H214.291V78.266C214.291 82.4611 215.881 84.4587 219.062 84.4587C220.255 84.4587 221.05 84.4588 221.845 84.259C222.64 84.0592 223.435 83.8594 224.032 83.4599C224.429 83.2601 224.628 83.2601 225.026 83.2601C225.423 83.2601 225.821 83.4599 226.219 83.6597C226.616 84.0592 226.616 84.259 226.616 84.8583C226.616 85.6574 226.219 86.2567 225.423 86.6562C224.231 87.2555 222.839 87.8548 221.447 88.2543C220.255 88.6539 218.664 88.8536 217.273 88.8536Z" fill="#724B00"/>
<path d="M117.077 106.433C117.077 105.434 117.077 104.635 117.276 103.836C117.475 103.037 117.674 102.438 118.071 102.038C118.469 101.439 118.866 101.039 119.463 100.64C120.059 100.24 120.854 99.8409 121.848 99.6411C123.041 99.2416 124.631 98.842 126.222 98.6423C128.011 98.4425 129.8 98.2427 131.788 98.2427C133.975 98.2427 135.764 98.4425 137.155 98.842C138.547 99.2416 139.938 99.6411 140.734 100.24C141.728 100.84 142.324 101.439 142.722 102.238C143.119 103.037 143.318 103.836 143.318 104.635C143.318 105.434 143.119 106.233 142.92 107.033C142.722 107.832 142.324 108.631 141.728 109.43C141.131 110.229 140.535 110.828 139.74 111.627C138.945 112.226 137.951 112.826 136.957 113.225C140.535 113.425 142.92 114.024 144.511 115.023C146.101 116.022 146.896 117.62 146.896 119.818C146.896 121.616 146.499 123.214 145.505 124.612C144.71 126.01 143.318 127.409 141.529 128.408C139.74 129.407 137.752 130.405 135.167 131.005C132.583 131.604 129.601 132.003 126.222 132.003C124.433 132.003 122.842 132.003 121.649 131.804C120.457 131.604 119.463 131.204 118.667 130.805C117.872 130.405 117.475 129.806 117.077 129.007C116.68 128.208 116.68 127.409 116.68 126.41V106.433H117.077ZM126.222 101.639C125.228 101.839 124.631 102.038 124.035 102.238C123.439 102.438 123.041 102.638 122.842 103.037C122.643 103.437 122.445 103.836 122.246 104.436C122.246 105.035 122.047 105.634 122.047 106.633V113.026H129.8C132.186 113.026 134.173 112.426 135.764 111.427C137.155 110.229 137.951 108.83 137.951 106.833C137.951 105.035 137.354 103.636 136.161 102.837C134.969 101.839 132.981 101.439 130.396 101.439C129.8 101.439 129.005 101.439 128.21 101.639C127.414 101.439 126.818 101.439 126.222 101.639ZM122.246 124.812C122.246 125.611 122.246 126.21 122.445 126.81C122.643 127.209 122.842 127.609 123.439 128.008C124.035 128.208 124.631 128.408 125.625 128.607C126.619 128.607 127.812 128.807 129.601 128.807C131.788 128.807 133.776 128.607 135.167 128.408C136.758 128.008 137.951 127.609 138.945 127.009C139.938 126.41 140.535 125.611 141.131 124.812C141.529 123.813 141.728 122.814 141.728 121.616C141.728 120.816 141.529 120.017 141.33 119.218C141.131 118.619 140.535 118.02 139.74 117.62C138.945 117.221 138.149 116.821 136.758 116.621C135.764 115.822 134.173 115.822 132.384 115.822H122.246V124.812Z" fill="#724B00"/>
<path d="M169.958 109.629C173.139 109.629 175.326 110.229 176.916 111.427C178.308 112.626 179.103 114.224 179.103 116.222C179.103 116.821 179.103 117.42 178.904 118.02C178.705 118.619 178.705 119.218 178.705 119.618V129.606C178.705 130.206 178.506 130.805 178.109 131.204C177.711 131.604 177.115 131.804 176.121 131.804C175.127 131.804 174.531 131.604 174.133 131.204C173.735 130.805 173.537 130.206 173.537 129.606V126.01C171.946 127.808 170.157 129.207 167.97 130.206C165.784 131.204 163.597 131.804 161.211 131.804C158.031 131.804 155.645 131.204 154.254 130.006C152.862 128.807 152.067 127.009 152.067 124.812C152.067 123.014 152.464 121.216 153.458 119.418C154.452 117.62 155.844 116.022 157.434 114.424C159.025 113.026 161.013 111.827 163.199 110.828C165.187 110.229 167.573 109.629 169.958 109.629ZM168.169 112.826C166.579 112.826 165.187 113.026 163.994 113.625C162.603 114.224 161.609 115.023 160.615 116.022C159.621 117.021 158.826 118.02 158.428 119.218C157.832 120.417 157.633 121.815 157.633 123.014C157.633 124.612 158.031 126.01 159.025 126.81C160.019 127.808 161.211 128.208 163 128.208C164.392 128.208 165.784 128.008 167.175 127.409C168.567 126.81 169.561 126.01 170.555 125.012C171.549 124.013 172.344 123.014 172.94 121.815C173.537 120.617 173.735 119.218 173.735 118.02C173.735 116.422 173.338 115.223 172.344 114.224C171.151 113.225 169.759 112.826 168.169 112.826Z" fill="#724B00"/>
<path d="M191.031 129.606C191.031 130.206 190.832 130.805 190.435 131.204C190.037 131.604 189.441 131.804 188.447 131.804C187.453 131.804 186.856 131.604 186.459 131.204C186.061 130.805 185.862 130.206 185.862 129.606V96.245C185.862 95.6457 186.061 95.0464 186.459 94.6469C186.856 94.2474 187.453 94.0476 188.447 94.0476C189.441 94.0476 190.037 94.2474 190.435 94.6469C190.832 95.0464 191.031 95.6457 191.031 96.245L190.832 117.42C191.23 116.422 191.826 115.623 192.423 114.624C193.218 113.625 194.013 112.826 195.007 112.226C196.001 111.427 197.194 111.028 198.386 110.429C199.579 110.029 200.772 109.829 201.965 109.829C203.158 109.829 204.152 110.029 204.748 110.429C205.344 110.828 205.543 111.427 205.543 112.226C205.543 113.825 204.947 114.624 203.754 114.624C203.356 114.624 203.158 114.624 202.76 114.424C202.561 114.424 202.164 114.224 201.766 114.024C201.368 113.825 201.17 113.825 200.772 113.625C200.374 113.625 199.977 113.425 199.579 113.425C198.784 113.425 197.989 113.625 197.194 113.825C196.399 114.224 195.802 114.424 195.206 115.023C194.609 115.423 194.212 116.022 194.013 116.621C193.615 117.221 193.615 117.82 193.615 118.619C193.615 119.618 193.814 120.417 194.609 121.416C195.206 122.215 196.001 123.014 196.995 123.813C197.989 124.612 198.983 125.211 199.977 125.811C201.17 126.41 202.164 126.61 203.158 126.81C204.151 127.009 204.748 127.209 204.947 127.609C205.344 128.008 205.344 128.607 205.344 129.407C205.344 130.006 205.145 130.605 204.748 131.204C204.35 131.604 203.754 132.003 202.76 132.003C201.368 132.003 200.176 131.604 198.784 131.005C197.392 130.405 196.2 129.406 195.007 128.208C193.814 127.009 192.82 125.611 192.025 124.213C191.23 122.614 190.832 121.016 190.633 119.418L191.031 129.606Z" fill="#724B00"/>
<path d="M227.013 109.629C229.995 109.629 232.182 110.229 233.573 111.228C234.965 112.226 235.561 113.425 235.561 115.023C235.561 116.821 234.965 118.22 233.772 119.418C232.579 120.617 230.591 121.416 227.609 122.015L214.489 124.213C214.489 125.611 214.886 126.61 215.483 127.409C216.278 128.208 217.471 128.607 219.459 128.607C221.248 128.607 222.838 128.408 224.429 128.008C226.019 127.609 227.41 127.009 228.802 126.41C229.398 126.01 229.995 126.01 230.194 126.01C230.989 126.01 231.386 126.41 231.386 127.409C231.386 128.008 230.989 128.408 230.194 128.807C226.218 131.005 222.043 132.203 217.868 132.203C216.278 132.203 214.886 132.003 213.694 131.604C212.501 131.204 211.507 130.805 210.911 130.206C210.115 129.606 209.718 128.807 209.32 128.008C208.923 127.209 208.724 126.21 208.724 125.211C208.724 123.413 209.121 121.616 210.115 119.618C211.109 117.82 212.501 116.222 214.091 114.624C215.682 113.225 217.67 112.027 219.856 111.028C222.242 110.229 224.627 109.629 227.013 109.629ZM225.224 112.626C224.031 112.626 222.838 112.826 221.645 113.225C220.453 113.625 219.459 114.224 218.465 115.023C217.471 115.822 216.676 116.621 216.079 117.62C215.483 118.619 214.886 119.618 214.688 120.816L226.218 119.019C228.007 118.819 229.2 118.419 229.597 117.82C230.194 117.221 230.392 116.621 230.392 115.822C230.392 115.023 229.995 114.224 229.2 113.625C228.206 113.026 227.013 112.626 225.224 112.626Z" fill="#724B00"/>
<path d="M261.602 123.413C261.602 123.813 261.602 124.213 261.801 124.612C261.801 124.812 262 125.211 262 125.411C262 125.611 261.801 126.01 261.602 126.21C261.404 126.41 261.006 126.81 260.211 127.409C259.416 128.008 258.422 128.607 257.229 129.207C256.235 129.806 255.042 130.206 254.048 130.605C253.054 131.005 251.861 131.404 250.868 131.604C249.874 131.804 248.88 132.003 247.886 132.003C244.904 132.003 242.717 131.404 241.127 130.006C239.735 128.807 238.94 127.009 238.94 124.812C238.94 122.814 239.337 121.016 240.331 119.218C241.325 117.42 242.319 115.822 243.91 114.424C245.301 113.026 246.892 111.827 248.88 111.028C250.669 110.229 252.458 109.829 254.247 109.829C254.645 109.829 255.241 109.829 255.639 109.829C256.036 109.829 256.434 109.829 256.633 109.829V96.245C256.633 95.6457 256.831 95.0464 257.229 94.6469C257.626 94.2474 258.223 94.0476 259.217 94.0476C260.211 94.0476 260.807 94.2474 261.205 94.6469C261.602 95.0464 261.801 95.6457 261.801 96.245V123.413H261.602ZM256.434 112.626C256.036 112.626 255.639 112.426 255.241 112.426C254.843 112.426 254.446 112.426 253.849 112.426C252.657 112.426 251.464 112.626 250.271 113.225C249.078 113.825 248.084 114.624 247.09 115.423C246.096 116.422 245.5 117.62 244.904 118.819C244.307 120.217 244.109 121.616 244.109 123.014C244.109 124.612 244.506 126.01 245.5 126.81C246.295 127.808 247.488 128.208 248.681 128.208C249.874 128.208 251.066 128.008 252.259 127.609C253.452 127.209 254.843 126.61 256.235 125.611C256.235 124.812 256.434 124.013 256.434 123.214C256.434 122.415 256.434 121.616 256.434 120.617V112.626Z" fill="#724B00"/>
<path d="M4.36412 92.0499C3.76774 92.0499 3.37015 92.0499 2.77376 91.8502H2.57497L1.97859 91.6504C1.77979 91.6504 1.581 91.4506 1.581 91.2508C-5.17801 63.8827 10.328 35.9152 36.7676 27.1254C42.1351 25.3275 47.9001 24.3286 53.4663 24.3286C75.7313 24.3286 96.0083 38.5121 103.563 59.4878C103.761 59.8873 103.563 60.2868 103.165 60.4866C101.773 61.0859 100.382 61.4854 98.9903 61.2857C97.7975 61.0859 96.8035 61.2857 95.8096 61.6852C95.0144 61.885 94.2192 62.4843 93.2252 62.8838C92.8276 63.0836 92.43 63.2834 91.8337 63.4831C91.0385 63.8827 90.2433 64.482 89.6469 65.0813C88.4542 66.2799 86.8638 67.4785 83.8819 67.878C79.7072 68.2775 74.7373 69.2764 70.9603 71.8734C66.9844 74.6701 58.4362 77.0673 55.0567 76.8676C52.0748 76.6678 51.4784 76.6678 50.2856 77.6666C48.4965 79.065 45.7134 79.8641 41.9363 79.8641C39.9483 79.8641 39.3519 80.8629 38.5568 82.0615C37.9604 82.8606 37.364 83.8594 36.1712 84.4587C35.1773 84.8583 33.9845 84.8583 32.7917 84.8583C31.0026 84.8583 29.4122 84.8583 27.8219 85.8571C24.6411 88.2543 21.6592 88.2543 17.6833 87.4553C16.093 87.0557 14.3038 88.0546 12.3159 89.2532C11.5207 89.6527 10.7255 90.0522 9.93036 90.4518C8.5388 91.2508 6.55086 92.0499 4.36412 92.0499ZM2.97256 90.4518C5.55689 90.8513 7.74363 90.0522 9.33398 89.2532C10.1292 88.8536 10.9243 88.4541 11.7195 88.0546C13.9063 86.8559 16.093 85.6573 18.2797 86.0569C22.6532 86.856 24.6411 86.6562 27.2255 84.6585C29.2134 83.2601 31.4002 83.2601 33.1893 83.2601C34.1833 83.2601 35.1773 83.2601 36.1712 83.0604C36.9664 82.8606 37.364 82.0615 37.9604 81.2625C38.7556 80.0639 39.7495 78.4657 42.5326 78.4657C46.7073 78.4657 48.8941 77.4669 49.888 76.6678C51.4784 75.2694 52.6712 75.2694 55.6531 75.4692C58.4362 75.669 66.5868 73.4715 70.5627 70.6748C74.7373 67.878 79.7072 66.8792 84.2795 66.4796C86.8638 66.2799 87.8578 65.0813 89.2493 64.0824C90.0445 63.4831 90.8397 62.6841 91.8337 62.2845C92.2312 62.0848 92.6288 61.885 93.0264 61.6852C94.0204 61.2857 94.8156 60.6864 95.8096 60.4866C97.0023 60.0871 98.3939 59.8873 99.5866 60.0871C100.581 60.0871 101.376 60.0871 102.37 59.6875C94.418 39.3112 74.9361 25.9268 53.4663 25.9268C47.9001 25.9268 42.3339 26.7259 37.1652 28.5238C11.5207 36.914 -3.38886 64.0824 2.97256 90.4518Z" fill="#724B00"/>
<path d="M75.3327 55.2926C70.3628 66.6794 58.4352 74.0708 45.5135 72.2729C32.5919 70.475 22.8509 60.2868 21.2606 47.9012C25.6341 57.8896 34.7786 65.281 46.3087 66.8792C57.64 68.4773 68.5737 63.6829 75.3327 55.2926Z" fill="#724B00"/>
<path d="M78.5142 57.8896C77.3215 57.4901 76.1287 56.691 75.3335 55.6922C74.5383 54.4936 74.1408 53.295 73.942 52.0964C74.3395 53.295 74.7371 54.4936 75.5323 55.4924C76.5263 56.2915 77.5202 57.2903 78.5142 57.8896Z" fill="#724B00"/>
<path d="M17.4827 49.4994C18.6755 49.4994 20.0671 49.0998 21.061 48.101C22.2538 47.3019 22.8502 46.1033 23.2478 44.9047C22.6514 45.9036 21.8562 46.9024 20.6634 47.7015C19.8683 48.7003 18.6755 49.0998 17.4827 49.4994Z" fill="#724B00"/>
<path d="M63.8014 44.5052C63.205 48.9001 61.0183 52.2961 59.0304 52.0964C57.0424 51.8966 55.8497 48.101 56.446 43.5063C57.0424 38.9117 59.2292 35.7154 61.2171 35.9152C63.2051 36.1149 64.3978 40.1103 63.8014 44.5052ZM62.6087 39.7108C62.2111 39.7108 61.6147 40.5098 61.4159 41.5087C61.2171 42.5075 61.6147 43.5063 62.0123 43.5063C62.4099 43.5063 63.0063 42.7073 63.205 41.7084C63.4038 40.7096 63.2051 39.7108 62.6087 39.7108Z" fill="#724B00"/>
<path d="M42.5315 41.5087C41.9351 45.9036 39.7483 49.2996 37.7604 49.0998C35.7724 48.9001 34.5797 45.1045 35.1761 40.5098C35.7724 36.1149 37.9592 32.7189 39.9471 32.9187C41.9351 33.3182 43.1278 37.1138 42.5315 41.5087ZM40.3447 38.3124C39.7483 38.3124 39.3507 39.1115 39.152 40.1103C38.9532 41.3089 39.3507 42.108 39.7483 42.3077C40.3447 42.3077 40.7423 41.5087 40.9411 40.5098C41.1399 39.3112 40.9411 38.3124 40.3447 38.3124Z" fill="#724B00"/>
<path d="M29.8074 21.3321C29.4098 22.1312 29.8074 23.13 30.6026 23.5296C30.8013 23.7293 31.0001 23.7293 31.3977 23.7293C31.9941 23.7293 32.5905 23.3298 32.9881 22.7305C35.5724 17.137 34.3796 15.1393 32.7893 13.3414C31.9941 12.5423 31.5965 11.943 32.9881 9.14629C33.3857 8.34722 32.9881 7.34838 32.1929 6.94885C31.3977 6.54931 30.4038 6.94885 30.0062 7.74792C27.8194 12.3426 29.0122 14.1405 30.4038 15.7386C31.0001 16.5377 31.5965 17.3368 29.8074 21.3321Z" fill="#724B00"/>
<path d="M63.9991 21.3321C63.6015 22.1312 63.9991 23.13 64.7943 23.5296C64.9931 23.7293 65.1919 23.7293 65.5895 23.7293C66.1858 23.7293 66.7822 23.3298 67.1798 22.7305C69.7641 17.137 68.5714 15.1393 66.981 13.3414C66.1858 12.5423 65.7883 11.943 67.1798 9.14629C67.5774 8.34722 67.1798 7.34838 66.3846 6.94885C65.5895 6.54931 64.5955 6.94885 64.1979 7.74792C62.0112 12.3426 63.2039 14.1405 64.5955 15.7386C65.1919 16.5377 65.9871 17.3368 63.9991 21.3321Z" fill="#724B00"/>
<path d="M46.9032 14.54C46.5056 15.3391 46.9032 16.3379 47.6984 16.7375C47.8972 16.9372 48.096 16.9372 48.4936 16.9372C49.0899 16.9372 49.6863 16.5377 50.0839 15.9384C52.6682 10.3449 51.4755 8.34722 49.8851 6.54931C49.0899 5.75024 48.6924 5.15093 50.0839 2.35419C50.4815 1.55511 50.0839 0.556275 49.2887 0.15674C48.4936 -0.242796 47.4996 0.15674 47.102 0.955811C44.9153 5.55047 46.108 7.34838 47.4996 8.94652C48.096 9.74559 48.6924 10.5447 46.9032 14.54Z" fill="#724B00"/>
<path d="M81.2969 135H25.4356C13.7068 135 4.16464 125.411 4.16464 113.625V96.6446C4.16464 96.2451 4.56222 95.8455 4.95981 95.8455H12.3152C13.1104 95.8455 14.1044 95.8455 15.0983 95.8455C18.279 95.6458 21.4598 95.6458 23.0501 96.2451C25.4356 97.2439 31.0019 97.4437 31.7971 96.6446C32.5922 95.8455 34.1826 95.8455 34.9778 95.8455C36.7669 96.0453 38.9537 96.8444 39.9476 98.2427C40.1464 98.6423 40.544 98.6423 42.1344 98.043C43.5259 97.4437 45.3151 96.8444 47.7006 97.0441C50.4837 97.4437 52.0741 97.0441 53.6644 96.6446C54.4596 96.4448 55.2548 96.2451 56.05 96.2451C58.6343 96.0453 67.9777 96.6446 73.3451 98.2427C76.327 99.0418 77.5198 98.6423 79.1101 97.8432C80.3029 97.2439 81.4957 96.6446 83.2848 96.6446C85.4716 96.4448 86.8631 97.2439 88.0559 97.8432C89.4474 98.4425 90.2426 98.842 92.0318 98.2427C94.2185 97.4437 96.4053 98.043 98.1944 98.4425C99.9836 99.0418 100.978 99.0418 101.375 98.4425C101.574 98.2427 101.972 98.043 102.17 98.043C102.568 98.043 102.767 98.4425 102.767 98.842V113.625C102.568 125.411 93.0258 135 81.2969 135ZM5.75499 97.4437V113.625C5.75499 124.612 14.7007 133.402 25.4356 133.402H81.2969C92.2306 133.402 100.978 124.412 100.978 113.625V100.24C99.9836 100.44 98.7908 100.041 97.598 99.8409C96.0077 99.4413 94.0197 98.842 92.4294 99.6411C90.0438 100.64 88.6523 99.8409 87.2607 99.2416C86.2667 98.6423 85.074 98.2427 83.2848 98.2427C81.6945 98.2427 80.7005 98.842 79.5077 99.2416C77.9174 100.041 76.1282 100.84 72.5499 99.8409C67.1825 98.2427 58.0379 97.6434 55.8512 97.8432C55.056 97.8432 54.4596 98.043 53.6644 98.2427C52.0741 98.6423 50.2849 99.0418 47.1042 98.6423C45.1163 98.4425 43.5259 99.0418 42.3332 99.4413C40.9416 100.041 39.3512 100.64 38.3573 99.2416C37.7609 98.4425 36.1705 97.6434 34.5802 97.6434C33.5862 97.6434 32.791 97.8432 32.5922 98.043C31.0019 99.6411 24.0441 98.6423 22.2549 98.043C20.8634 97.4437 17.4839 97.6434 14.8995 97.6434C13.9056 97.6434 12.9116 97.6434 12.1164 97.6434H5.75499V97.4437Z" fill="#724B00"/>
</svg>
