<svg width="29" height="29" viewBox="0 0 29 29" fill="none" xmlns="http://www.w3.org/2000/svg">
<path d="M26.9826 14.5C26.9826 7.64317 21.3568 2.01739 14.5 2.01739C7.64317 2.01739 2.01739 7.64317 2.01739 14.5C2.01739 21.3568 7.64317 26.9826 14.5 26.9826C21.3568 26.9826 26.9826 21.3568 26.9826 14.5ZM29 14.5C29 22.471 22.471 29 14.5 29C6.529 29 0 22.471 0 14.5C0 6.529 6.529 0 14.5 0C22.471 0 29 6.529 29 14.5Z" fill="#724B00"/>
<path d="M21.4772 18.9603C20.4874 18.011 18.5079 16.1425 16.7078 14.6858C16.5914 14.5954 16.5914 14.4146 16.7078 14.3242C18.5079 12.8575 20.4874 10.9991 21.4772 10.0498C21.6131 9.91918 21.8363 10.0046 21.8508 10.1954C22.0497 12.3753 22.0497 16.6347 21.8508 18.8146C21.8363 19.0005 21.6131 19.0858 21.4772 18.9603ZM21.1813 9.69817C19.9537 10.8785 17.1639 13.5005 15.131 14.9621C15.0534 15.0174 14.9515 15.0174 14.8739 14.9621C12.8409 13.4954 10.0511 10.8735 8.81875 9.69817C8.6829 9.56758 8.75082 9.32648 8.94005 9.30137C10.187 9.11553 12.4237 9 15 9C17.5763 9 19.813 9.11553 21.06 9.30137C21.2443 9.32648 21.3171 9.56256 21.1813 9.69817ZM8.14919 18.8096C7.95027 16.6297 7.95027 12.3703 8.14919 10.1904C8.1686 9.99954 8.38693 9.91416 8.52279 10.0447C9.51256 10.9941 11.4873 12.8575 13.2922 14.3192C13.4086 14.4096 13.4037 14.5904 13.2922 14.6808C11.497 16.1425 9.51256 18.0059 8.52279 18.9553C8.38693 19.0909 8.1686 19.0005 8.14919 18.8096ZM8.81875 19.3018C9.83278 18.3274 11.9142 16.3685 13.7482 14.8968C13.8259 14.8315 13.9374 14.8315 14.0199 14.8918C14.3159 15.1178 14.6021 15.3338 14.8739 15.5196C14.9515 15.5699 15.0485 15.5699 15.1213 15.5196C15.393 15.3338 15.6793 15.1228 15.9752 14.8918C16.0577 14.8315 16.1644 14.8315 16.2469 14.8968C18.0809 16.3685 20.1624 18.3274 21.1764 19.3018C21.3123 19.4324 21.2443 19.6735 21.0551 19.6986C19.8082 19.8845 17.5715 20 14.9951 20C12.4188 20 10.1821 19.8845 8.93519 19.6986C8.75567 19.6735 8.6829 19.4374 8.81875 19.3018Z" fill="#724B00"/>
</svg>
