<svg width="29" height="30" viewBox="0 0 29 30" fill="none" xmlns="http://www.w3.org/2000/svg">
<path d="M16.8744 18.1958L17.4083 17.6218C17.5944 17.4033 17.8415 17.2507 18.115 17.1855C18.3886 17.1202 18.6749 17.1455 18.9339 17.2578C19.7246 17.6337 20.4012 18.2276 20.8903 18.9751C20.9931 19.2455 21.0244 19.5396 20.981 19.8268C20.9376 20.114 20.8211 20.3839 20.6435 20.6085C20.298 21.0518 19.4455 22.3305 17.875 21.9198C15.1878 21.0997 12.8103 19.4354 11.0681 17.1551C8.65849 14.1077 7.13288 10.7103 8.53734 9.16566L9.09822 8.53099C9.09822 8.53099 10.0899 7.49965 10.9963 8.31166C11.9027 9.12367 13.0065 10.7524 12.127 11.7837L11.5616 12.4324C11.5616 12.4324 10.6956 13.0624 13.186 15.7551C15.6763 18.4478 16.3494 18.4898 16.8744 18.1958Z" fill="#724B00"/>
<path d="M27 15C27 8.09644 21.4036 2.5 14.5 2.5C7.59644 2.5 2 8.09644 2 15C2 21.9036 7.59644 27.5 14.5 27.5V29.5C6.49187 29.5 0 23.0081 0 15C0 6.99187 6.49187 0.5 14.5 0.5C22.5081 0.5 29 6.99187 29 15C29 23.0081 22.5081 29.5 14.5 29.5V27.5C21.4036 27.5 27 21.9036 27 15Z" fill="#724B00"/>
</svg>
