<svg width="36" height="36" viewBox="0 0 36 36" fill="none" xmlns="http://www.w3.org/2000/svg">
<path d="M30.9544 27.0151C28.9749 25.2027 25.0158 21.6356 21.4157 18.8548C21.1828 18.6822 21.1828 18.337 21.4157 18.1644C25.0158 15.3644 28.9749 11.8164 30.9544 10.0041C31.2261 9.75479 31.6725 9.91781 31.7016 10.2822C32.0995 14.4438 32.0995 22.5753 31.7016 26.737C31.6725 27.0918 31.2261 27.2548 30.9544 27.0151ZM30.3625 9.33288C27.9075 11.5863 22.3278 16.5918 18.262 19.3822C18.1067 19.4877 17.903 19.4877 17.7477 19.3822C13.6819 16.5822 8.10224 11.5767 5.6375 9.33288C5.36579 9.08356 5.50165 8.62329 5.88009 8.57534C8.37394 8.22055 12.8473 8 18 8C23.1527 8 27.6261 8.22055 30.1199 8.57534C30.4887 8.62329 30.6342 9.07397 30.3625 9.33288ZM4.29839 26.7274C3.90054 22.5658 3.90054 14.4342 4.29839 10.2726C4.3372 9.90822 4.77387 9.74521 5.04557 9.99452C7.02513 11.8068 10.9745 15.3644 14.5843 18.1548C14.8172 18.3274 14.8075 18.6726 14.5843 18.8452C10.9939 21.6356 7.02513 25.1932 5.04557 27.0055C4.77387 27.2644 4.3372 27.0918 4.29839 26.7274ZM5.6375 27.6671C7.66557 25.8068 11.8285 22.0671 15.4964 19.2575C15.6517 19.1329 15.8749 19.1329 16.0399 19.2479C16.6318 19.6795 17.2043 20.0918 17.7477 20.4466C17.903 20.5425 18.097 20.5425 18.2426 20.4466C18.786 20.0918 19.3585 19.689 19.9504 19.2479C20.1154 19.1329 20.3289 19.1329 20.4938 19.2575C24.1618 22.0671 28.3247 25.8068 30.3528 27.6671C30.6245 27.9164 30.4887 28.3767 30.1102 28.4247C27.6164 28.7795 23.143 29 17.9903 29C12.8376 29 8.36423 28.7795 5.87039 28.4247C5.51135 28.3767 5.36579 27.926 5.6375 27.6671Z" fill="white"/>
</svg>
