<svg width="36" height="36" viewBox="0 0 36 36" fill="none" xmlns="http://www.w3.org/2000/svg">
<g id="Frame 5321">
<g id="Vector">
<path d="M30.9826 18.5C30.9826 11.6432 25.3568 6.01739 18.5 6.01739C11.6432 6.01739 6.01739 11.6432 6.01739 18.5C6.01739 25.3568 11.6432 30.9826 18.5 30.9826C25.3568 30.9826 30.9826 25.3568 30.9826 18.5ZM33 18.5C33 26.471 26.471 33 18.5 33C10.529 33 4 26.471 4 18.5C4 10.529 10.529 4 18.5 4C26.471 4 33 10.529 33 18.5Z" fill="white"/>
<path d="M21.1983 19.1557H18.8026V26.847H15.247V19.1557H13.5574V16.1296H15.247V14.1878C15.247 12.8009 15.9026 10.607 18.8278 10.607H21.4504V13.5322H19.5339C19.2313 13.5322 18.7774 13.6835 18.7774 14.3643V16.1296H21.4757L21.1983 19.1557Z" fill="white"/>
</g>
</g>
</svg>
