<svg width="36" height="36" viewBox="0 0 36 36" fill="none" xmlns="http://www.w3.org/2000/svg">
<path d="M18.4947 4C12.144 4 7 8.98196 7 15.1325C7 22.667 13.3507 29.3506 16.6107 32.2926C17.6691 33.2459 19.3097 33.2357 20.3576 32.2619C23.607 29.2378 30 22.3697 30 15.1428C30 8.98196 24.8454 4 18.4947 4ZM18.4947 19.807C15.8274 19.807 13.6682 17.7158 13.6682 15.1325C13.6682 12.5493 15.8274 10.4581 18.4947 10.4581C21.162 10.4581 23.3212 12.5493 23.3212 15.1325C23.3212 17.7158 21.162 19.807 18.4947 19.807Z" fill="white"/>
</svg>
