<svg width="94" height="48" viewBox="0 0 94 48" fill="none" xmlns="http://www.w3.org/2000/svg">
<path d="M41.9394 17.8129C41.9394 17.5288 42.0106 17.3157 42.2244 17.1026C42.4382 16.8895 42.7232 16.8185 43.1507 16.8185C43.5783 16.8185 43.8633 16.8895 44.0771 17.1026C44.2908 17.3157 44.3621 17.5288 44.3621 17.8129V24.6316C44.3621 25.4839 44.2196 26.3363 43.8633 27.1176C43.507 27.9699 43.0082 28.6802 42.3669 29.3195C41.7256 29.9587 40.9418 30.527 39.9442 30.8821C39.0178 31.3083 37.949 31.5214 36.7376 31.5214C36.1675 31.5214 35.5975 31.4503 35.0987 31.3083C34.5999 31.1662 34.1723 30.9531 33.8873 30.669C33.531 30.3849 33.246 30.1008 33.1035 29.7457C32.8897 29.3905 32.8184 29.0354 32.8184 28.6092C32.8184 28.112 32.9609 27.7569 33.246 27.4017C33.531 27.1886 33.8873 26.9755 34.2436 26.9755C34.9562 26.9755 35.3124 27.2597 35.3124 27.8989C35.3124 28.6802 35.5262 29.2485 35.9538 29.6036C36.3813 29.9587 36.8801 30.1718 37.6639 30.1718C38.3765 30.1718 38.9466 30.0298 39.5166 29.7457C40.0867 29.4615 40.5142 29.1064 40.8705 28.6802C41.2268 28.2541 41.5118 27.6858 41.7256 27.1176C41.9394 26.5494 42.0106 25.9101 42.0106 25.1998V17.8129H41.9394Z" fill="#724B00"/>
<path d="M56.546 28.4671C55.9047 29.5326 55.1209 30.3139 54.1945 30.8111C53.2682 31.3083 52.2706 31.5924 51.1305 31.5924C49.7053 31.5924 48.6365 31.3083 47.9239 30.7401C47.2113 30.1718 46.855 29.4615 46.855 28.5382C46.855 28.041 46.9263 27.5438 47.1401 27.0466C47.2826 26.4783 47.5676 25.9101 47.8526 25.4129C48.1377 24.8447 48.4939 24.2765 48.9927 23.7793C49.4203 23.211 49.9191 22.7138 50.4179 22.2877C50.5604 22.1456 50.7742 22.0036 50.8454 21.9325C50.9879 21.8615 51.1305 21.8615 51.273 21.8615C51.4868 21.8615 51.6293 21.9325 51.7718 22.0746C51.9143 22.2166 51.9855 22.3587 51.9855 22.5008C51.9855 22.5718 51.9855 22.6428 51.9143 22.7138C51.9143 22.7849 51.7718 22.9269 51.7005 22.998C51.3442 23.4241 50.9879 23.8503 50.7029 24.2765C50.4179 24.7026 50.2041 25.1288 49.9903 25.555C49.7766 25.9811 49.6341 26.4073 49.5628 26.7625C49.4203 27.1176 49.4203 27.4727 49.4203 27.8279C49.4203 28.6092 49.6341 29.2485 50.0616 29.6036C50.4891 30.0298 51.0592 30.1718 51.7718 30.1718C52.3418 30.1718 52.9831 30.0298 53.5532 29.7457C54.1233 29.4615 54.6221 29.1064 55.0496 28.6802C55.4771 28.183 55.8334 27.6858 56.1185 27.0466C56.4035 26.4073 56.546 25.697 56.546 24.9867V22.9269C56.546 22.6428 56.6173 22.4297 56.831 22.2877C56.9736 22.0746 57.3298 22.0036 57.7574 22.0036C58.1849 22.0036 58.47 22.0746 58.6125 22.2877C58.755 22.5008 58.8975 22.7138 58.8975 22.9269V30.527C58.8975 30.8111 58.8262 31.0242 58.6125 31.1662C58.47 31.3793 58.1849 31.4503 57.7574 31.4503C57.3298 31.4503 57.0448 31.3793 56.9023 31.1662C56.7598 30.9531 56.6173 30.7401 56.6173 30.527V28.4671H56.546Z" fill="#724B00"/>
<path d="M65.7389 30.1008C66.5939 30.1008 67.2353 29.9587 67.6628 29.6036C68.0903 29.3195 68.3041 28.9643 68.3041 28.6802C68.3041 28.4671 68.2329 28.2541 68.0191 28.041C67.8766 27.8989 67.5203 27.6858 67.0215 27.5438L64.4562 26.7625C63.8149 26.5494 63.3161 26.2653 63.0311 25.9811C62.7461 25.626 62.6035 25.2709 62.6035 24.8447C62.6035 24.4185 62.6748 24.0634 62.8886 23.7082C63.1023 23.3531 63.3874 22.9979 63.8149 22.7138C64.2425 22.4297 64.7413 22.2166 65.3826 22.0035C66.0239 21.8615 66.7365 21.7194 67.5915 21.7194C68.8742 21.7194 69.8005 21.9325 70.5131 22.2877C71.2257 22.6428 71.582 23.069 71.582 23.4951C71.582 23.7793 71.5107 24.0634 71.2969 24.2765C71.0831 24.4895 70.7981 24.6316 70.4418 24.6316C70.0143 24.6316 69.7293 24.4895 69.5155 24.2765C69.0879 23.7793 68.6604 23.4241 68.3041 23.211C67.9478 22.9979 67.5203 22.9269 67.0215 22.9269C66.4514 22.9269 65.9526 23.069 65.5251 23.3531C65.1688 23.6372 64.955 23.9213 64.955 24.2765C64.955 24.4895 65.0263 24.7026 65.2401 24.8447C65.4538 24.9867 65.8101 25.1998 66.3802 25.3419L68.6604 26.0522C69.373 26.2653 69.943 26.5494 70.2281 26.9045C70.5131 27.2597 70.7269 27.6858 70.7269 28.183C70.7269 28.5382 70.5843 28.8933 70.3706 29.2485C70.1568 29.6036 69.8005 29.9587 69.3017 30.3139C68.8029 30.669 68.2329 30.8821 67.5915 31.0952C66.9502 31.3083 66.1664 31.4503 65.2401 31.4503C64.5987 31.4503 64.0287 31.3793 63.4586 31.2373C62.9598 31.0952 62.461 30.8821 62.1047 30.669C61.7485 30.4559 61.4634 30.1718 61.2497 29.8167C61.0359 29.4615 60.9646 29.1774 60.9646 28.8223C60.9646 28.3961 61.0359 28.112 61.2497 27.8989C61.3922 27.6858 61.6772 27.5438 62.0335 27.5438C62.3185 27.5438 62.5323 27.6148 62.6748 27.7569C62.8886 27.8989 63.0311 28.183 63.1736 28.5382C63.3874 29.0354 63.6724 29.3905 64.0287 29.6036C64.5275 30.0298 65.0263 30.1008 65.7389 30.1008Z" fill="#724B00"/>
<path d="M77.9237 31.5924C77.4249 31.5924 76.9261 31.5214 76.4985 31.3793C76.071 31.2373 75.7147 31.0242 75.3584 30.8111C75.0021 30.598 74.7884 30.2429 74.6458 29.9587C74.5033 29.6036 74.3608 29.2485 74.3608 28.8223C74.3608 28.4671 74.3608 28.183 74.4321 27.9699C74.5033 27.7569 74.5033 27.5438 74.5033 27.1886V23.5662H73.4345C73.0069 23.5662 72.7932 23.3531 72.7932 22.8559C72.7932 22.3587 73.0069 22.1456 73.4345 22.1456H74.5033V16.8895C74.5033 16.6054 74.5746 16.3923 74.7884 16.2502C75.0021 16.1082 75.2872 15.9661 75.6434 15.9661C76.071 15.9661 76.356 16.0372 76.5698 16.2502C76.7123 16.4633 76.8548 16.6764 76.8548 16.8895V22.1456H79.8476C80.2752 22.1456 80.4889 22.3587 80.4889 22.8559C80.4889 23.3531 80.2752 23.5662 79.8476 23.5662H76.8548V27.8279C76.8548 29.3195 77.4249 30.0298 78.565 30.0298C78.9925 30.0298 79.2776 30.0298 79.5626 29.9587C79.8476 29.8877 80.1327 29.8167 80.3464 29.6746C80.4889 29.6036 80.5602 29.6036 80.7027 29.6036C80.8452 29.6036 80.9877 29.6746 81.1303 29.7457C81.2728 29.8877 81.2728 29.9587 81.2728 30.1718C81.2728 30.4559 81.1303 30.669 80.8452 30.8111C80.4177 31.0242 79.9189 31.2373 79.4201 31.3793C78.9925 31.5214 78.4225 31.5924 77.9237 31.5924Z" fill="#724B00"/>
<path d="M42.0089 37.8429C42.0089 37.4878 42.0089 37.2037 42.0801 36.9195C42.1514 36.6354 42.2226 36.4223 42.3652 36.2803C42.5077 36.0672 42.6502 35.9252 42.864 35.7831C43.0777 35.641 43.3628 35.499 43.719 35.4279C44.1466 35.2859 44.7167 35.1438 45.2867 35.0728C45.928 35.0018 46.5693 34.9307 47.2819 34.9307C48.0657 34.9307 48.7071 35.0018 49.2059 35.1438C49.7047 35.2859 50.2035 35.4279 50.4885 35.641C50.8448 35.8541 51.0585 36.0672 51.2011 36.3513C51.3436 36.6354 51.4148 36.9195 51.4148 37.2037C51.4148 37.4878 51.3436 37.7719 51.2723 38.056C51.2011 38.3401 51.0585 38.6242 50.8448 38.9083C50.631 39.1925 50.4172 39.4055 50.1322 39.6897C49.8472 39.9027 49.4909 40.1158 49.1346 40.2579C50.4172 40.3289 51.2723 40.542 51.8424 40.8971C52.4124 41.2523 52.6975 41.8205 52.6975 42.6018C52.6975 43.2411 52.5549 43.8093 52.1987 44.3065C51.9136 44.8037 51.4148 45.3009 50.7735 45.6561C50.1322 46.0112 49.4196 46.3663 48.4933 46.5794C47.5669 46.7925 46.4981 46.9346 45.2867 46.9346C44.6454 46.9346 44.0753 46.9346 43.6478 46.8635C43.2202 46.7925 42.864 46.6505 42.5789 46.5084C42.2939 46.3663 42.1514 46.1533 42.0089 45.8691C41.8664 45.585 41.8664 45.3009 41.8664 44.9458V37.8429H42.0089ZM45.2867 36.1382C44.9304 36.2093 44.7167 36.2803 44.5029 36.3513C44.2891 36.4223 44.1466 36.4934 44.0753 36.6354C44.0041 36.7775 43.9328 36.9195 43.8616 37.1326C43.8616 37.3457 43.7903 37.5588 43.7903 37.9139V40.1869H46.5693C47.4244 40.1869 48.137 39.9738 48.7071 39.6186C49.2059 39.1925 49.4909 38.6953 49.4909 37.985C49.4909 37.3457 49.2771 36.8485 48.8496 36.5644C48.422 36.2093 47.7094 36.0672 46.7831 36.0672C46.5693 36.0672 46.2843 36.0672 45.9993 36.1382C45.7143 36.0672 45.5005 36.0672 45.2867 36.1382ZM43.8616 44.3775C43.8616 44.6617 43.8616 44.8747 43.9328 45.0878C44.0041 45.2299 44.0753 45.3719 44.2891 45.514C44.5029 45.585 44.7167 45.6561 45.0729 45.7271C45.4292 45.7271 45.8568 45.7981 46.4981 45.7981C47.2819 45.7981 47.9945 45.7271 48.4933 45.6561C49.0633 45.514 49.4909 45.3719 49.8472 45.1589C50.2035 44.9458 50.4172 44.6617 50.631 44.3775C50.7735 44.0224 50.8448 43.6673 50.8448 43.2411C50.8448 42.957 50.7735 42.6729 50.7023 42.3887C50.631 42.1757 50.4172 41.9626 50.1322 41.8205C49.8472 41.6785 49.5621 41.5364 49.0633 41.4654C48.7071 41.1813 48.137 41.1813 47.4957 41.1813H43.8616V44.3775Z" fill="#724B00"/>
<path d="M60.964 38.9794C62.1041 38.9794 62.8879 39.1925 63.458 39.6186C63.9568 40.0448 64.2418 40.613 64.2418 41.3233C64.2418 41.5364 64.2418 41.7495 64.1705 41.9626C64.0993 42.1757 64.0993 42.3887 64.0993 42.5308V46.0822C64.0993 46.2953 64.028 46.5084 63.8855 46.6505C63.743 46.7925 63.5292 46.8635 63.1729 46.8635C62.8166 46.8635 62.6029 46.7925 62.4603 46.6505C62.3178 46.5084 62.2466 46.2953 62.2466 46.0822V44.8037C61.6765 45.443 61.0352 45.9402 60.2514 46.2953C59.4675 46.6505 58.6837 46.8635 57.8286 46.8635C56.6885 46.8635 55.8334 46.6505 55.3346 46.2243C54.8358 45.7981 54.5508 45.1589 54.5508 44.3775C54.5508 43.7383 54.6933 43.099 55.0496 42.4598C55.4059 41.8205 55.9047 41.2523 56.4747 40.6841C57.0448 40.1869 57.7574 39.7607 58.5412 39.4055C59.2538 39.1925 60.1089 38.9794 60.964 38.9794ZM60.3226 40.1158C59.7526 40.1158 59.2538 40.1869 58.8262 40.3999C58.3274 40.613 57.9711 40.8971 57.6149 41.2523C57.2586 41.6074 56.9735 41.9626 56.831 42.3887C56.6173 42.8149 56.546 43.3121 56.546 43.7383C56.546 44.3065 56.6885 44.8037 57.0448 45.0878C57.4011 45.443 57.8286 45.585 58.4699 45.585C58.9687 45.585 59.4675 45.514 59.9664 45.3009C60.4651 45.0878 60.8214 44.8037 61.1777 44.4486C61.534 44.0934 61.819 43.7383 62.0328 43.3121C62.2466 42.8859 62.3178 42.3887 62.3178 41.9626C62.3178 41.3943 62.1753 40.9682 61.819 40.613C61.3915 40.2579 60.8927 40.1158 60.3226 40.1158Z" fill="#724B00"/>
<path d="M68.5174 46.0822C68.5174 46.2953 68.4462 46.5084 68.3036 46.6505C68.1611 46.7925 67.9474 46.8635 67.5911 46.8635C67.2348 46.8635 67.021 46.7925 66.8785 46.6505C66.736 46.5084 66.6647 46.2953 66.6647 46.0822V34.2205C66.6647 34.0074 66.736 33.7943 66.8785 33.6522C67.021 33.5102 67.2348 33.4391 67.5911 33.4391C67.9474 33.4391 68.1611 33.5102 68.3036 33.6522C68.4462 33.7943 68.5174 34.0074 68.5174 34.2205L68.4462 41.7495C68.5887 41.3943 68.8025 41.1102 69.0162 40.7551C69.3013 40.3999 69.5863 40.1158 69.9426 39.9027C70.2989 39.6186 70.7264 39.4766 71.1539 39.2635C71.5815 39.1214 72.009 39.0504 72.4366 39.0504C72.8641 39.0504 73.2204 39.1214 73.4342 39.2635C73.6479 39.4055 73.7192 39.6186 73.7192 39.9027C73.7192 40.471 73.5054 40.7551 73.0779 40.7551C72.9354 40.7551 72.8641 40.7551 72.7216 40.6841C72.6503 40.6841 72.5078 40.613 72.3653 40.542C72.2228 40.471 72.1515 40.471 72.009 40.3999C71.8665 40.3999 71.724 40.3289 71.5815 40.3289C71.2964 40.3289 71.0114 40.3999 70.7264 40.471C70.4414 40.613 70.2276 40.6841 70.0138 40.8971C69.8 41.0392 69.6575 41.2523 69.5863 41.4654C69.4438 41.6785 69.4438 41.8915 69.4438 42.1757C69.4438 42.5308 69.515 42.8149 69.8 43.1701C70.0138 43.4542 70.2989 43.7383 70.6551 44.0224C71.0114 44.3065 71.3677 44.5196 71.724 44.7327C72.1515 44.9458 72.5078 45.0168 72.8641 45.0878C73.2204 45.1589 73.4342 45.2299 73.5054 45.3719C73.6479 45.514 73.6479 45.7271 73.6479 46.0112C73.6479 46.2243 73.5767 46.4374 73.4342 46.6505C73.2917 46.7925 73.0779 46.9346 72.7216 46.9346C72.2228 46.9346 71.7953 46.7925 71.2965 46.5794C70.7977 46.3663 70.3701 46.0112 69.9426 45.585C69.515 45.1589 69.1587 44.6617 68.8737 44.1645C68.5887 43.5962 68.4462 43.028 68.3749 42.4598L68.5174 46.0822Z" fill="#724B00"/>
<path d="M81.415 38.9794C82.4838 38.9794 83.2677 39.1925 83.7665 39.5476C84.2653 39.9027 84.479 40.3289 84.479 40.8971C84.479 41.5364 84.2653 42.0336 83.8377 42.4598C83.4102 42.8859 82.6976 43.1701 81.6287 43.3831L76.9258 44.1645C76.9258 44.6617 77.0683 45.0168 77.2821 45.3009C77.5671 45.585 77.9946 45.7271 78.7072 45.7271C79.3485 45.7271 79.9186 45.6561 80.4886 45.514C81.0587 45.3719 81.5575 45.1589 82.0563 44.9458C82.2701 44.8037 82.4838 44.8037 82.5551 44.8037C82.8401 44.8037 82.9826 44.9458 82.9826 45.3009C82.9826 45.514 82.8401 45.6561 82.5551 45.7981C81.1299 46.5794 79.6335 47.0056 78.1371 47.0056C77.5671 47.0056 77.0683 46.9346 76.6407 46.7925C76.2132 46.6505 75.8569 46.5084 75.6431 46.2953C75.3581 46.0822 75.2156 45.7981 75.0731 45.514C74.9306 45.2299 74.8593 44.8747 74.8593 44.5196C74.8593 43.8803 75.0018 43.2411 75.3581 42.5308C75.7144 41.8915 76.2132 41.3233 76.7832 40.7551C77.3533 40.2579 78.0659 39.8317 78.8497 39.4766C79.7048 39.1925 80.5599 38.9794 81.415 38.9794ZM80.7737 40.0448C80.3461 40.0448 79.9186 40.1158 79.491 40.2579C79.0635 40.3999 78.7072 40.613 78.3509 40.8971C77.9946 41.1813 77.7096 41.4654 77.4958 41.8205C77.2821 42.1757 77.0683 42.5308 76.997 42.957L81.1299 42.3177C81.7713 42.2467 82.1988 42.1046 82.3413 41.8915C82.5551 41.6785 82.6264 41.4654 82.6264 41.1813C82.6264 40.8971 82.4838 40.613 82.1988 40.3999C81.8425 40.1869 81.415 40.0448 80.7737 40.0448Z" fill="#724B00"/>
<path d="M93.8135 43.8803C93.8135 44.0224 93.8135 44.1645 93.8847 44.3065C93.8847 44.3775 93.956 44.5196 93.956 44.5906C93.956 44.6617 93.8848 44.8037 93.8135 44.8747C93.7422 44.9458 93.5997 45.0878 93.3147 45.3009C93.0297 45.514 92.6734 45.7271 92.2458 45.9402C91.8895 46.1533 91.462 46.2953 91.1057 46.4374C90.7494 46.5794 90.3219 46.7215 89.9656 46.7925C89.6093 46.8635 89.253 46.9346 88.8967 46.9346C87.8279 46.9346 87.0441 46.7215 86.474 46.2243C85.9752 45.7981 85.6902 45.1589 85.6902 44.3775C85.6902 43.6673 85.8327 43.028 86.189 42.3887C86.5453 41.7495 86.9015 41.1813 87.4716 40.6841C87.9704 40.1869 88.5405 39.7607 89.253 39.4766C89.8943 39.1925 90.5357 39.0504 91.177 39.0504C91.3195 39.0504 91.5333 39.0504 91.6758 39.0504C91.8183 39.0504 91.9608 39.0504 92.0321 39.0504V34.2205C92.0321 34.0074 92.1033 33.7943 92.2458 33.6522C92.3883 33.5102 92.6021 33.4391 92.9584 33.4391C93.3147 33.4391 93.5285 33.5102 93.671 33.6522C93.8135 33.7943 93.8847 34.0074 93.8847 34.2205V43.8803H93.8135ZM91.9608 40.0448C91.8183 40.0448 91.6758 39.9738 91.5332 39.9738C91.3907 39.9738 91.2482 39.9738 91.0345 39.9738C90.6069 39.9738 90.1794 40.0448 89.7518 40.2579C89.3243 40.471 88.968 40.7551 88.6117 41.0392C88.2554 41.3943 88.0417 41.8205 87.8279 42.2467C87.6141 42.7439 87.5429 43.2411 87.5429 43.7383C87.5429 44.3065 87.6854 44.8037 88.0416 45.0878C88.3267 45.443 88.7542 45.585 89.1818 45.585C89.6093 45.585 90.0369 45.514 90.4644 45.3719C90.8919 45.2299 91.3907 45.0168 91.8895 44.6617C91.8895 44.3775 91.9608 44.0934 91.9608 43.8093C91.9608 43.5252 91.9608 43.2411 91.9608 42.8859V40.0448Z" fill="#724B00"/>
<path d="M1.60727 32.7289C1.3935 32.7289 1.25099 32.7289 1.03722 32.6578H0.965958L0.752187 32.5868C0.680929 32.5868 0.609672 32.5158 0.609672 32.4447C-1.81307 22.7138 3.74499 12.7698 13.2222 9.64458C15.1461 9.00533 17.2126 8.65018 19.2078 8.65018C27.1886 8.65018 34.4568 13.6932 37.1646 21.1512C37.2359 21.2933 37.1646 21.4353 37.0221 21.5063C36.5233 21.7194 36.0245 21.8615 35.5257 21.7905C35.0982 21.7194 34.7419 21.7905 34.3856 21.9325C34.1006 22.0035 33.8155 22.2166 33.4592 22.3587C33.3167 22.4297 33.1742 22.5007 32.9604 22.5718C32.6754 22.7138 32.3904 22.9269 32.1766 23.14C31.7491 23.5662 31.179 23.9923 30.1102 24.1344C28.6138 24.2765 26.8323 24.6316 25.4784 25.555C24.0533 26.5494 20.9892 27.4017 19.7779 27.3307C18.709 27.2597 18.4952 27.2597 18.0677 27.6148C17.4264 28.112 16.4288 28.3961 15.0749 28.3961C14.3623 28.3961 14.1485 28.7513 13.8635 29.1774C13.6497 29.4615 13.436 29.8167 13.0084 30.0298C12.6521 30.1718 12.2246 30.1718 11.7971 30.1718C11.1557 30.1718 10.5857 30.1718 10.0156 30.527C8.87551 31.3793 7.80665 31.3793 6.38151 31.0952C5.81145 30.9531 5.17013 31.3083 4.45756 31.7345C4.17253 31.8765 3.8875 32.0186 3.60247 32.1606C3.10367 32.4447 2.3911 32.7289 1.60727 32.7289ZM1.10847 32.1606C2.03482 32.3027 2.81865 32.0186 3.3887 31.7345C3.67373 31.5924 3.95876 31.4503 4.24379 31.3083C5.02762 30.8821 5.81145 30.4559 6.59528 30.598C8.16294 30.8821 8.87551 30.8111 9.80185 30.1008C10.5144 29.6036 11.2983 29.6036 11.9396 29.6036C12.2959 29.6036 12.6521 29.6036 13.0084 29.5326C13.2935 29.4615 13.436 29.1774 13.6497 28.8933C13.9348 28.4671 14.2911 27.8989 15.2887 27.8989C16.7851 27.8989 17.5689 27.5438 17.9252 27.2597C18.4952 26.7625 18.9228 26.7625 19.9916 26.8335C20.9892 26.9045 23.9108 26.1232 25.3359 25.1288C26.8323 24.1344 28.6138 23.7793 30.2527 23.6372C31.179 23.5662 31.5353 23.14 32.0341 22.7849C32.3191 22.5718 32.6042 22.2877 32.9604 22.1456C33.103 22.0746 33.2455 22.0035 33.388 21.9325C33.7443 21.7905 34.0293 21.5774 34.3856 21.5063C34.8131 21.3643 35.3119 21.2933 35.7395 21.3643C36.0958 21.3643 36.3808 21.3643 36.7371 21.2222C33.8868 13.9773 26.9036 9.21841 19.2078 9.21841C17.2126 9.21841 15.2174 9.50252 13.3647 10.1418C4.17253 13.125 -1.17176 22.7849 1.10847 32.1606Z" fill="#724B00"/>
<path d="M27.0457 19.6596C25.2643 23.7082 20.9889 26.3363 16.3571 25.697C11.7254 25.0578 8.23382 21.4353 7.66376 17.0316C9.23142 20.583 12.5092 23.211 16.6422 23.7793C20.7038 24.3475 24.623 22.6428 27.0457 19.6596Z" fill="#724B00"/>
<path d="M28.1861 20.583C27.7586 20.4409 27.331 20.1568 27.046 19.8017C26.761 19.3755 26.6185 18.9493 26.5472 18.5232C26.6897 18.9493 26.8322 19.3755 27.1173 19.7306C27.4736 20.0147 27.8298 20.3699 28.1861 20.583Z" fill="#724B00"/>
<path d="M6.30959 17.5998C6.73714 17.5998 7.23594 17.4577 7.59222 17.1026C8.01977 16.8185 8.23354 16.3923 8.37605 15.9661C8.16228 16.3213 7.87725 16.6764 7.44971 16.9605C7.16468 17.3157 6.73714 17.4577 6.30959 17.5998Z" fill="#724B00"/>
<path d="M22.9124 15.8241C22.6986 17.3867 21.9148 18.5942 21.2022 18.5231C20.4896 18.4521 20.0621 17.1026 20.2759 15.4689C20.4896 13.8353 21.2735 12.6988 21.986 12.7698C22.6986 12.8409 23.1262 14.2614 22.9124 15.8241ZM22.4848 14.1194C22.3423 14.1194 22.1286 14.4035 22.0573 14.7586C21.986 15.1138 22.1286 15.4689 22.2711 15.4689C22.4136 15.4689 22.6274 15.1848 22.6986 14.8297C22.7699 14.4745 22.6986 14.1194 22.4848 14.1194Z" fill="#724B00"/>
<path d="M15.2882 14.7586C15.0745 16.3213 14.2906 17.5288 13.5781 17.4577C12.8655 17.3867 12.4379 16.0372 12.6517 14.4035C12.8655 12.8409 13.6493 11.6334 14.3619 11.7044C15.0745 11.8465 15.502 13.196 15.2882 14.7586ZM14.5044 13.6222C14.2906 13.6222 14.1481 13.9063 14.0769 14.2614C14.0056 14.6876 14.1481 14.9717 14.2906 15.0428C14.5044 15.0428 14.6469 14.7586 14.7182 14.4035C14.7894 13.9773 14.7182 13.6222 14.5044 13.6222Z" fill="#724B00"/>
<path d="M10.7273 7.58476C10.5848 7.86887 10.7273 8.22401 11.0124 8.36607C11.0836 8.4371 11.1549 8.4371 11.2974 8.4371C11.5112 8.4371 11.7249 8.29504 11.8674 8.08196C12.7938 6.09316 12.3662 5.38287 11.7962 4.74361C11.5112 4.4595 11.3686 4.24642 11.8674 3.25202C12.01 2.9679 11.8674 2.61276 11.5824 2.4707C11.2974 2.32864 10.9411 2.4707 10.7986 2.75482C10.0148 4.38847 10.4423 5.02773 10.9411 5.59596C11.1549 5.88007 11.3686 6.16419 10.7273 7.58476Z" fill="#724B00"/>
<path d="M22.9832 7.58476C22.8407 7.86887 22.9832 8.22401 23.2683 8.36607C23.3395 8.4371 23.4108 8.4371 23.5533 8.4371C23.7671 8.4371 23.9808 8.29504 24.1234 8.08196C25.0497 6.09316 24.6222 5.38287 24.0521 4.74361C23.7671 4.4595 23.6246 4.24642 24.1234 3.25202C24.2659 2.9679 24.1234 2.61276 23.8383 2.4707C23.5533 2.32864 23.197 2.4707 23.0545 2.75482C22.2707 4.38847 22.6982 5.02773 23.197 5.59596C23.4108 5.88007 23.6958 6.16419 22.9832 7.58476Z" fill="#724B00"/>
<path d="M16.8553 5.16979C16.7128 5.4539 16.8553 5.80904 17.1403 5.9511C17.2116 6.02213 17.2828 6.02213 17.4253 6.02213C17.6391 6.02213 17.8529 5.88007 17.9954 5.66698C18.9217 3.67819 18.4942 2.9679 17.9241 2.32864C17.6391 2.04453 17.4966 1.83144 17.9954 0.837044C18.1379 0.55293 17.9954 0.197787 17.7104 0.0557297C17.4253 -0.0863274 17.069 0.0557297 16.9265 0.339844C16.1427 1.9735 16.5702 2.61276 17.069 3.18099C17.2828 3.4651 17.4966 3.74921 16.8553 5.16979Z" fill="#724B00"/>
<path d="M29.1836 48H9.16029C4.95612 48 1.53577 44.5906 1.53577 40.3999V34.3625C1.53577 34.2205 1.67828 34.0784 1.8208 34.0784H4.45731C4.74234 34.0784 5.09863 34.0784 5.45492 34.0784C6.59503 34.0074 7.73515 34.0074 8.3052 34.2205C9.16029 34.5756 11.1555 34.6466 11.4405 34.3625C11.7255 34.0784 12.2956 34.0784 12.5806 34.0784C13.222 34.1494 14.0058 34.4336 14.3621 34.9307C14.4333 35.0728 14.5758 35.0728 15.1459 34.8597C15.6447 34.6466 16.286 34.4335 17.1411 34.5046C18.1387 34.6466 18.7088 34.5046 19.2788 34.3625C19.5638 34.2915 19.8489 34.2205 20.1339 34.2205C21.0602 34.1494 24.4093 34.3625 26.3333 34.9307C27.4021 35.2149 27.8297 35.0728 28.3997 34.7887C28.8273 34.5756 29.2548 34.3625 29.8961 34.3625C30.68 34.2915 31.1788 34.5756 31.6063 34.7887C32.1051 35.0018 32.3901 35.1438 33.0315 34.9307C33.8153 34.6466 34.5991 34.8597 35.2404 35.0018C35.8817 35.2149 36.238 35.2149 36.3805 35.0018C36.4518 34.9307 36.5943 34.8597 36.6656 34.8597C36.8081 34.8597 36.8793 35.0018 36.8793 35.1438V40.3999C36.8081 44.5906 33.3877 48 29.1836 48ZM2.10583 34.6466V40.3999C2.10583 44.3065 5.3124 47.4318 9.16029 47.4318H29.1836C33.1027 47.4318 36.238 44.2355 36.238 40.3999V35.641C35.8817 35.7121 35.4542 35.57 35.0267 35.499C34.4566 35.3569 33.744 35.1438 33.174 35.4279C32.3189 35.7831 31.8201 35.499 31.3213 35.2859C30.965 35.0728 30.5375 34.9307 29.8961 34.9307C29.3261 34.9307 28.9698 35.1438 28.5423 35.2859C27.9722 35.57 27.3309 35.8541 26.0482 35.499C24.1243 34.9307 20.8465 34.7177 20.0626 34.7887C19.7776 34.7887 19.5638 34.8597 19.2788 34.9307C18.7088 35.0728 18.0674 35.2149 16.9273 35.0728C16.2148 35.0018 15.6447 35.2149 15.2172 35.3569C14.7184 35.57 14.1483 35.7831 13.792 35.2859C13.5782 35.0018 13.0082 34.7177 12.4381 34.7177C12.0818 34.7177 11.7968 34.7887 11.7255 34.8597C11.1555 35.4279 8.66149 35.0728 8.02017 34.8597C7.52137 34.6466 6.31 34.7177 5.38366 34.7177C5.02737 34.7177 4.67109 34.7177 4.38606 34.7177H2.10583V34.6466Z" fill="#724B00"/>
</svg>
