<svg width="36" height="36" viewBox="0 0 36 36" fill="none" xmlns="http://www.w3.org/2000/svg">
<path d="M30 20.9764V25.5975C30 28.0124 28.053 30 25.6291 30C25.6093 30 25.5993 30 25.5795 30C23.9007 30 22.2815 29.7913 20.7318 29.3938C13.8179 27.6447 8.36424 22.1888 6.60596 15.272C6.20861 13.7118 6 12.0919 6 10.4124C6 10.3925 6 10.3826 6 10.3627C6.00993 7.94783 7.98676 6 10.4007 6H15.0199C16.1623 6 17.0861 6.92422 17.0861 8.06708V13.2149C17.0861 14.3578 16.1623 15.282 15.0199 15.282H13.4702C14.7914 18.5913 17.4338 21.2248 20.7318 22.5466V20.9963C20.7318 19.8534 21.6556 18.9292 22.798 18.9292H27.9437C29.0762 18.9193 30 19.8435 30 20.9764Z" fill="white"/>
</svg>
