<svg width="28" height="26" viewBox="0 0 28 26" fill="none" xmlns="http://www.w3.org/2000/svg">
<path d="M5.73503 10.5564L7.61547 16.2542M5.73503 10.5564L3.0544 11.456C2.27422 11.7159 1.65407 12.2757 1.31399 12.9555C0.973915 13.6352 0.893897 14.4549 1.15396 15.2346C1.67408 16.794 3.35447 17.6537 4.93484 17.1339L7.61547 16.2542M5.73503 10.5564L11.8765 3.39909M7.61547 16.2542L8.71573 16.4541L16.8376 17.8936C15.1172 17.5737 13.0567 14.9547 11.8765 11.416C10.7362 7.99734 10.7962 4.77856 11.8765 3.39909M11.8765 3.39909L11.9965 3.25914C11.9565 3.29913 11.9165 3.3591 11.8765 3.39909ZM16.2775 9.99658C16.5776 10.8762 16.3375 11.8159 15.7174 12.4756C16.3175 11.8159 16.5776 10.8762 16.2775 9.99658ZM16.2775 9.99658C15.9774 9.11692 15.2172 8.49715 14.317 8.33721M16.2775 9.99658C15.9974 9.09692 15.2172 8.49715 14.317 8.33721M14.317 8.33721C13.8769 8.25724 13.3968 8.27723 12.9367 8.43717M14.5371 13.2553C15.0172 13.0954 15.4173 12.8355 15.7374 12.4756M22.4389 8.19726L27 6.69783M20.6185 5.43831L22.1989 1M22.3389 11.656L26.8 13.6952M7.61547 16.2342L5.23491 17.0139L7.49544 23.8113C7.79551 24.731 8.77574 25.2108 9.69596 24.9109C10.6162 24.611 11.0963 23.6314 10.7962 22.7117L8.71573 16.4341L7.61547 16.2342ZM12.6967 2.79932C12.6166 2.81931 12.5366 2.85929 12.4766 2.89928C12.2966 2.99924 12.1365 3.11919 11.9965 3.27913L11.8765 3.41908C10.7962 4.77856 10.7362 7.99734 11.8765 11.436C13.0567 14.9547 15.1172 17.5737 16.8376 17.8736H16.8576C17.0977 17.9136 17.3177 17.9136 17.5378 17.8536C17.5778 17.8536 17.6178 17.8336 17.6578 17.8136C19.4982 17.2138 19.8583 13.3553 18.478 9.19688C17.1377 5.05846 14.5371 2.17955 12.6967 2.79932Z" stroke="white" stroke-width="2" stroke-miterlimit="10" stroke-linecap="round" stroke-linejoin="round"/>
</svg>
