<svg width="47" height="44" viewBox="0 0 47 44" fill="none" xmlns="http://www.w3.org/2000/svg">
<path d="M36.6132 36.301C42.2031 33.0123 45.9648 26.9247 45.9648 19.9625C45.9648 9.46664 37.4218 1 26.91 1M26.91 1C20.3709 1 14.6052 4.2887 11.1599 9.25673M26.91 1L26.91 4.56859M46 19.9625H42.3789M14.9919 9.85149C14.9919 9.85149 18.156 7.61238 19.8435 10.3413C21.5311 13.0702 15.9919 18.0382 15.9919 18.0382H20.8631M27.1561 18.0382V8.97684L22.41 15.2394H29.16M34.3085 10.971L31.2323 18.4855L28.1561 26M33.7108 22.4319H39.7929L35.2226 31.4933M23.6756 33.9569L25.0467 32.5925C25.0467 32.5925 26.5936 30.7732 28.9491 31.7178C31.3046 32.6275 33.3085 34.8316 33.9413 35.8112C34.5741 36.7908 34.1874 38.6101 33.3085 39.6947C32.4296 40.7442 30.2499 43.788 26.242 42.8084C22.2342 41.8288 14.9919 38.7151 8.83955 31.4729C2.68716 24.2308 -1.21522 16.149 2.37075 12.4755L3.81217 10.971C3.81217 10.971 6.34344 8.52202 8.66377 10.4463C10.9841 12.3705 13.7966 16.254 11.5466 18.703L10.1052 20.2424C10.1052 20.2424 7.89032 21.7468 14.2537 28.1492C20.617 34.5517 22.3397 34.6567 23.6756 33.9569Z" stroke="#724B00" stroke-width="2" stroke-miterlimit="10" stroke-linecap="round" stroke-linejoin="round"/>
</svg>
