<svg width="100" height="52" viewBox="0 0 100 52" fill="none" xmlns="http://www.w3.org/2000/svg">
<path d="M44.6119 19.2973C44.6119 18.9895 44.6878 18.7586 44.9154 18.5278C45.143 18.297 45.4465 18.22 45.9018 18.22C46.357 18.22 46.6605 18.297 46.8882 18.5278C47.1158 18.7586 47.1917 18.9895 47.1917 19.2973V26.6842C47.1917 27.6076 47.0399 28.531 46.6605 29.3774C46.2812 30.3008 45.75 31.0703 45.0672 31.7628C44.3843 32.4553 43.5496 33.0709 42.4874 33.4556C41.501 33.9173 40.3629 34.1482 39.073 34.1482C38.466 34.1482 37.859 34.0712 37.3278 33.9173C36.7967 33.7634 36.3414 33.5326 36.0379 33.2248C35.6586 32.917 35.3551 32.6092 35.2033 32.2245C34.9757 31.8397 34.8998 31.455 34.8998 30.9933C34.8998 30.4547 35.0516 30.0699 35.3551 29.6852C35.6586 29.4544 36.0379 29.2235 36.4173 29.2235C37.1761 29.2235 37.5555 29.5313 37.5555 30.2238C37.5555 31.0703 37.7831 31.6858 38.2383 32.0706C38.6936 32.4553 39.2247 32.6861 40.0593 32.6861C40.8181 32.6861 41.4251 32.5323 42.0321 32.2245C42.6391 31.9167 43.0944 31.5319 43.4738 31.0703C43.8531 30.6086 44.1566 29.993 44.3843 29.3774C44.6119 28.7618 44.6878 28.0693 44.6878 27.2998V19.2973H44.6119Z" fill="#724B00"/>
<path d="M60.1653 30.8394C59.4824 31.9936 58.6478 32.84 57.6614 33.3787C56.675 33.9173 55.6127 34.2251 54.3987 34.2251C52.8812 34.2251 51.7431 33.9173 50.9843 33.3017C50.2256 32.6862 49.8462 31.9167 49.8462 30.9164C49.8462 30.3777 49.9221 29.8391 50.1497 29.3005C50.3014 28.6849 50.6049 28.0693 50.9084 27.5307C51.2119 26.9151 51.5913 26.2995 52.1224 25.7609C52.5777 25.1453 53.1088 24.6067 53.64 24.145C53.7917 23.9911 54.0193 23.8372 54.0952 23.7602C54.247 23.6833 54.3987 23.6833 54.5505 23.6833C54.7781 23.6833 54.9299 23.7602 55.0816 23.9141C55.2334 24.068 55.3092 24.2219 55.3092 24.3758C55.3092 24.4528 55.3092 24.5297 55.2334 24.6067C55.2334 24.6836 55.0816 24.8375 55.0057 24.9144C54.6264 25.3761 54.247 25.8378 53.9435 26.2995C53.64 26.7612 53.4123 27.2229 53.1847 27.6846C52.9571 28.1462 52.8053 28.6079 52.7295 28.9927C52.5777 29.3774 52.5777 29.7621 52.5777 30.1469C52.5777 30.9933 52.8053 31.6858 53.2606 32.0706C53.7158 32.5323 54.3228 32.6862 55.0816 32.6862C55.6886 32.6862 56.3715 32.5323 56.9785 32.2245C57.5855 31.9167 58.1166 31.5319 58.5719 31.0703C59.0271 30.5316 59.4065 29.993 59.71 29.3005C60.0135 28.6079 60.1653 27.8385 60.1653 27.069V24.8375C60.1653 24.5297 60.2412 24.2989 60.4688 24.145C60.6205 23.9141 60.9999 23.8372 61.4552 23.8372C61.9104 23.8372 62.2139 23.9141 62.3657 24.145C62.5174 24.3758 62.6692 24.6067 62.6692 24.8375V33.0709C62.6692 33.3787 62.5933 33.6095 62.3657 33.7634C62.2139 33.9943 61.9104 34.0712 61.4552 34.0712C60.9999 34.0712 60.6964 33.9943 60.5447 33.7634C60.3929 33.5326 60.2412 33.3017 60.2412 33.0709V30.8394H60.1653Z" fill="#724B00"/>
<path d="M69.954 32.6092C70.8645 32.6092 71.5474 32.4553 72.0026 32.0706C72.4579 31.7628 72.6855 31.378 72.6855 31.0703C72.6855 30.8394 72.6096 30.6086 72.382 30.3777C72.2302 30.2238 71.8509 29.993 71.3197 29.8391L68.5882 28.9927C67.9053 28.7618 67.3742 28.454 67.0707 28.1462C66.7672 27.7615 66.6154 27.3768 66.6154 26.9151C66.6154 26.4534 66.6913 26.0687 66.9189 25.6839C67.1466 25.2992 67.4501 24.9144 67.9053 24.6067C68.3606 24.2989 68.8917 24.068 69.5746 23.8372C70.2575 23.6833 71.0162 23.5294 71.9267 23.5294C73.2925 23.5294 74.2789 23.7602 75.0376 24.145C75.7964 24.5297 76.1758 24.9914 76.1758 25.4531C76.1758 25.7609 76.0999 26.0687 75.8723 26.2995C75.6446 26.5303 75.3411 26.6842 74.9618 26.6842C74.5065 26.6842 74.203 26.5303 73.9754 26.2995C73.5201 25.7609 73.0649 25.3761 72.6855 25.1453C72.3061 24.9144 71.8509 24.8375 71.3197 24.8375C70.7127 24.8375 70.1816 24.9914 69.7263 25.2992C69.347 25.607 69.1193 25.9148 69.1193 26.2995C69.1193 26.5303 69.1952 26.7612 69.4228 26.9151C69.6505 27.069 70.0298 27.2998 70.6368 27.4537L73.0649 28.2232C73.8236 28.454 74.4306 28.7618 74.7341 29.1466C75.0376 29.5313 75.2653 29.993 75.2653 30.5316C75.2653 30.9164 75.1135 31.3011 74.8859 31.6858C74.6583 32.0706 74.2789 32.4553 73.7477 32.84C73.2166 33.2248 72.6096 33.4556 71.9267 33.6865C71.2438 33.9173 70.4092 34.0712 69.4228 34.0712C68.7399 34.0712 68.1329 33.9943 67.5259 33.8404C66.9948 33.6865 66.4637 33.4556 66.0843 33.2248C65.7049 32.9939 65.4014 32.6861 65.1738 32.3014C64.9462 31.9167 64.8703 31.6089 64.8703 31.2241C64.8703 30.7625 64.9462 30.4547 65.1738 30.2238C65.3255 29.993 65.629 29.8391 66.0084 29.8391C66.3119 29.8391 66.5396 29.916 66.6913 30.0699C66.9189 30.2238 67.0707 30.5316 67.2224 30.9164C67.4501 31.455 67.7536 31.8397 68.1329 32.0706C68.6641 32.5323 69.1952 32.6092 69.954 32.6092Z" fill="#724B00"/>
<path d="M82.9285 34.2251C82.3974 34.2251 81.8663 34.1482 81.411 33.9943C80.9558 33.8404 80.5764 33.6095 80.197 33.3787C79.8176 33.1478 79.59 32.7631 79.4383 32.4553C79.2865 32.0706 79.1348 31.6858 79.1348 31.2241C79.1348 30.8394 79.1348 30.5316 79.2106 30.3008C79.2865 30.0699 79.2865 29.8391 79.2865 29.4544V25.53H78.1484C77.6931 25.53 77.4655 25.2992 77.4655 24.7606C77.4655 24.2219 77.6931 23.9911 78.1484 23.9911H79.2865V18.297C79.2865 17.9892 79.3624 17.7583 79.59 17.6044C79.8176 17.4505 80.1211 17.2966 80.5005 17.2966C80.9558 17.2966 81.2593 17.3736 81.4869 17.6044C81.6387 17.8353 81.7904 18.0661 81.7904 18.297V23.9911H84.9772C85.4324 23.9911 85.6601 24.2219 85.6601 24.7606C85.6601 25.2992 85.4324 25.53 84.9772 25.53H81.7904V30.1469C81.7904 31.7628 82.3974 32.5323 83.6114 32.5323C84.0667 32.5323 84.3702 32.5323 84.6737 32.4553C84.9772 32.3784 85.2807 32.3014 85.5083 32.1475C85.6601 32.0706 85.7359 32.0706 85.8877 32.0706C86.0394 32.0706 86.1912 32.1475 86.3429 32.2245C86.4947 32.3784 86.4947 32.4553 86.4947 32.6862C86.4947 32.9939 86.3429 33.2248 86.0394 33.3787C85.5842 33.6095 85.0531 33.8404 84.5219 33.9943C84.0667 34.1482 83.4597 34.2251 82.9285 34.2251Z" fill="#724B00"/>
<path d="M44.6859 40.9965C44.6859 40.6118 44.6859 40.304 44.7618 39.9962C44.8377 39.6884 44.9136 39.4575 45.0653 39.3036C45.2171 39.0728 45.3688 38.9189 45.5964 38.765C45.8241 38.6111 46.1276 38.4572 46.5069 38.3803C46.9622 38.2264 47.5692 38.0725 48.1762 37.9955C48.8591 37.9186 49.542 37.8416 50.3007 37.8416C51.1354 37.8416 51.8182 37.9186 52.3494 38.0725C52.8805 38.2264 53.4116 38.3803 53.7151 38.6111C54.0945 38.842 54.3221 39.0728 54.4739 39.3806C54.6256 39.6884 54.7015 39.9962 54.7015 40.304C54.7015 40.6118 54.6256 40.9195 54.5498 41.2273C54.4739 41.5351 54.3221 41.8429 54.0945 42.1507C53.8669 42.4585 53.6393 42.6893 53.3358 42.9971C53.0323 43.228 52.6529 43.4588 52.2735 43.6127C53.6393 43.6897 54.5498 43.9205 55.1568 44.3052C55.7638 44.69 56.0673 45.3056 56.0673 46.152C56.0673 46.8445 55.9155 47.4601 55.5361 47.9987C55.2326 48.5374 54.7015 49.076 54.0186 49.4607C53.3358 49.8455 52.577 50.2302 51.5906 50.461C50.6042 50.6919 49.4661 50.8458 48.1762 50.8458C47.4933 50.8458 46.8863 50.8458 46.4311 50.7688C45.9758 50.6919 45.5964 50.538 45.2929 50.3841C44.9894 50.2302 44.8377 49.9994 44.6859 49.6916C44.5342 49.3838 44.5342 49.076 44.5342 48.6913V40.9965H44.6859ZM48.1762 39.1498C47.7968 39.2267 47.5692 39.3036 47.3416 39.3806C47.1139 39.4575 46.9622 39.5345 46.8863 39.6884C46.8104 39.8423 46.7346 39.9962 46.6587 40.227C46.6587 40.4579 46.5828 40.6887 46.5828 41.0734V43.5358H49.542C50.4525 43.5358 51.2112 43.3049 51.8182 42.9202C52.3494 42.4585 52.6529 41.9199 52.6529 41.1504C52.6529 40.4579 52.4252 39.9192 51.97 39.6114C51.5147 39.2267 50.756 39.0728 49.7696 39.0728C49.542 39.0728 49.2385 39.0728 48.935 39.1498C48.6315 39.0728 48.4038 39.0728 48.1762 39.1498ZM46.6587 48.0757C46.6587 48.3835 46.6587 48.6143 46.7346 48.8451C46.8104 48.999 46.8863 49.1529 47.1139 49.3068C47.3416 49.3838 47.5692 49.4607 47.9486 49.5377C48.328 49.5377 48.7832 49.6146 49.4661 49.6146C50.3007 49.6146 51.0595 49.5377 51.5906 49.4607C52.1976 49.3068 52.6529 49.1529 53.0323 48.9221C53.4116 48.6913 53.6393 48.3835 53.8669 48.0757C54.0186 47.6909 54.0945 47.3062 54.0945 46.8445C54.0945 46.5367 54.0186 46.2289 53.9428 45.9211C53.8669 45.6903 53.6393 45.4595 53.3358 45.3056C53.0323 45.1517 52.7288 44.9978 52.1976 44.9208C51.8182 44.613 51.2112 44.613 50.5284 44.613H46.6587V48.0757Z" fill="#724B00"/>
<path d="M64.8696 42.2277C66.0836 42.2277 66.9182 42.4585 67.5252 42.9202C68.0564 43.3819 68.3598 43.9975 68.3598 44.7669C68.3598 44.9978 68.3598 45.2286 68.284 45.4595C68.2081 45.6903 68.2081 45.9211 68.2081 46.075V49.9224C68.2081 50.1533 68.1322 50.3841 67.9805 50.538C67.8287 50.6919 67.6011 50.7688 67.2217 50.7688C66.8423 50.7688 66.6147 50.6919 66.463 50.538C66.3112 50.3841 66.2353 50.1533 66.2353 49.9224V48.5374C65.6283 49.2299 64.9454 49.7685 64.1108 50.1533C63.2762 50.538 62.4415 50.7688 61.531 50.7688C60.317 50.7688 59.4065 50.538 58.8754 50.0763C58.3443 49.6146 58.0407 48.9221 58.0407 48.0757C58.0407 47.3831 58.1925 46.6906 58.5719 45.9981C58.9513 45.3056 59.4824 44.69 60.0894 44.0744C60.6964 43.5358 61.4552 43.0741 62.2898 42.6893C63.0485 42.4585 63.9591 42.2277 64.8696 42.2277ZM64.1867 43.4588C63.5797 43.4588 63.0485 43.5358 62.5933 43.7666C62.0622 43.9975 61.6828 44.3052 61.3034 44.69C60.924 45.0747 60.6205 45.4595 60.4688 45.9211C60.2411 46.3828 60.1653 46.9215 60.1653 47.3831C60.1653 47.9987 60.317 48.5374 60.6964 48.8451C61.0758 49.2299 61.531 49.3838 62.2139 49.3838C62.745 49.3838 63.2762 49.3068 63.8073 49.076C64.3384 48.8451 64.7178 48.5374 65.0972 48.1526C65.4766 47.7679 65.7801 47.3831 66.0077 46.9215C66.2353 46.4598 66.3112 45.9211 66.3112 45.4595C66.3112 44.8439 66.1595 44.3822 65.7801 43.9975C65.3248 43.6127 64.7937 43.4588 64.1867 43.4588Z" fill="#724B00"/>
<path d="M72.9126 49.9224C72.9126 50.1533 72.8367 50.3841 72.685 50.538C72.5332 50.6919 72.3056 50.7688 71.9262 50.7688C71.5469 50.7688 71.3192 50.6919 71.1675 50.538C71.0157 50.3841 70.9398 50.1533 70.9398 49.9224V37.0722C70.9398 36.8413 71.0157 36.6105 71.1675 36.4566C71.3192 36.3027 71.5469 36.2257 71.9262 36.2257C72.3056 36.2257 72.5332 36.3027 72.685 36.4566C72.8367 36.6105 72.9126 36.8413 72.9126 37.0722L72.8367 45.2286C72.9885 44.8439 73.2161 44.5361 73.4437 44.1513C73.7473 43.7666 74.0508 43.4588 74.4301 43.228C74.8095 42.9202 75.2648 42.7663 75.72 42.5354C76.1753 42.3815 76.6305 42.3046 77.0858 42.3046C77.541 42.3046 77.9204 42.3815 78.148 42.5354C78.3757 42.6893 78.4515 42.9202 78.4515 43.228C78.4515 43.8436 78.2239 44.1513 77.7687 44.1513C77.6169 44.1513 77.541 44.1513 77.3893 44.0744C77.3134 44.0744 77.1617 43.9974 77.0099 43.9205C76.8582 43.8436 76.7823 43.8436 76.6305 43.7666C76.4788 43.7666 76.327 43.6897 76.1753 43.6897C75.8718 43.6897 75.5683 43.7666 75.2648 43.8436C74.9613 43.9975 74.7336 44.0744 74.506 44.3052C74.2784 44.4591 74.1266 44.69 74.0508 44.9208C73.899 45.1517 73.899 45.3825 73.899 45.6903C73.899 46.075 73.9749 46.3828 74.2784 46.7676C74.506 47.0754 74.8095 47.3831 75.1889 47.6909C75.5683 47.9987 75.9476 48.2296 76.327 48.4604C76.7823 48.6912 77.1617 48.7682 77.541 48.8451C77.9204 48.9221 78.148 48.999 78.2239 49.1529C78.3757 49.3068 78.3757 49.5377 78.3757 49.8455C78.3757 50.0763 78.2998 50.3071 78.148 50.538C77.9963 50.6919 77.7687 50.8458 77.3893 50.8458C76.8582 50.8458 76.4029 50.6919 75.8718 50.461C75.3406 50.2302 74.8854 49.8455 74.4301 49.3838C73.9749 48.9221 73.5955 48.3835 73.292 47.8448C72.9885 47.2293 72.8367 46.6137 72.7609 45.9981L72.9126 49.9224Z" fill="#724B00"/>
<path d="M86.6461 42.2277C87.7843 42.2277 88.6189 42.4585 89.15 42.8432C89.6812 43.228 89.9088 43.6897 89.9088 44.3052C89.9088 44.9978 89.6811 45.5364 89.2259 45.9981C88.7706 46.4598 88.0119 46.7676 86.8737 46.9984L81.866 47.8448C81.866 48.3835 82.0177 48.7682 82.2453 49.076C82.5488 49.3838 83.0041 49.5377 83.7628 49.5377C84.4457 49.5377 85.0527 49.4607 85.6597 49.3068C86.2667 49.1529 86.7979 48.9221 87.329 48.6912C87.5566 48.5374 87.7843 48.5374 87.8601 48.5374C88.1636 48.5374 88.3154 48.6913 88.3154 49.076C88.3154 49.3068 88.1636 49.4607 87.8601 49.6146C86.3426 50.461 84.7492 50.9227 83.1558 50.9227C82.5488 50.9227 82.0177 50.8458 81.5624 50.6919C81.1072 50.538 80.7278 50.3841 80.5002 50.1533C80.1967 49.9224 80.0449 49.6146 79.8932 49.3068C79.7414 48.999 79.6656 48.6143 79.6656 48.2296C79.6656 47.537 79.8173 46.8445 80.1967 46.075C80.5761 45.3825 81.1072 44.7669 81.7142 44.1513C82.3212 43.6127 83.08 43.151 83.9146 42.7663C84.8251 42.4585 85.7356 42.2277 86.6461 42.2277ZM85.9632 43.3819C85.508 43.3819 85.0527 43.4588 84.5975 43.6127C84.1422 43.7666 83.7628 43.9974 83.3835 44.3052C83.0041 44.613 82.7006 44.9208 82.473 45.3056C82.2453 45.6903 82.0177 46.075 81.9418 46.5367L86.3426 45.8442C87.0255 45.7672 87.4808 45.6133 87.6325 45.3825C87.8601 45.1517 87.936 44.9208 87.936 44.613C87.936 44.3052 87.7843 43.9975 87.4808 43.7666C87.1014 43.5358 86.6461 43.3819 85.9632 43.3819Z" fill="#724B00"/>
<path d="M99.8482 47.537C99.8482 47.6909 99.8482 47.8448 99.9241 47.9987C99.9241 48.0757 100 48.2296 100 48.3065C100 48.3835 99.9241 48.5374 99.8482 48.6143C99.7724 48.6913 99.6206 48.8451 99.3171 49.076C99.0136 49.3068 98.6342 49.5377 98.179 49.7685C97.7996 49.9994 97.3443 50.1533 96.965 50.3072C96.5856 50.461 96.1303 50.6149 95.751 50.6919C95.3716 50.7688 94.9922 50.8458 94.6128 50.8458C93.4747 50.8458 92.6401 50.6149 92.0331 50.0763C91.5019 49.6146 91.1984 48.9221 91.1984 48.0757C91.1984 47.3062 91.3502 46.6137 91.7295 45.9211C92.1089 45.2286 92.4883 44.613 93.0953 44.0744C93.6264 43.5358 94.2334 43.0741 94.9922 42.7663C95.6751 42.4585 96.358 42.3046 97.0408 42.3046C97.1926 42.3046 97.4202 42.3046 97.572 42.3046C97.7237 42.3046 97.8755 42.3046 97.9514 42.3046V37.0722C97.9514 36.8413 98.0272 36.6105 98.179 36.4566C98.3307 36.3027 98.5584 36.2257 98.9377 36.2257C99.3171 36.2257 99.5447 36.3027 99.6965 36.4566C99.8482 36.6105 99.9241 36.8413 99.9241 37.0722V47.537H99.8482ZM97.8755 43.3819C97.7237 43.3819 97.572 43.3049 97.4202 43.3049C97.2685 43.3049 97.1167 43.3049 96.8891 43.3049C96.4338 43.3049 95.9786 43.3819 95.5233 43.6127C95.0681 43.8436 94.6887 44.1513 94.3093 44.4591C93.9299 44.8439 93.7023 45.3056 93.4747 45.7672C93.2471 46.3059 93.1712 46.8445 93.1712 47.3831C93.1712 47.9987 93.3229 48.5374 93.7023 48.8451C94.0058 49.2299 94.4611 49.3838 94.9163 49.3838C95.3716 49.3838 95.8268 49.3068 96.2821 49.1529C96.7373 48.999 97.2685 48.7682 97.7996 48.3835C97.7996 48.0757 97.8755 47.7679 97.8755 47.4601C97.8755 47.1523 97.8755 46.8445 97.8755 46.4598V43.3819Z" fill="#724B00"/>
<path d="M1.66569 35.4563C1.43807 35.4563 1.28632 35.4563 1.05869 35.3793H0.982813L0.755186 35.3024C0.67931 35.3024 0.603434 35.2254 0.603434 35.1485C-1.97634 24.6067 3.94197 13.834 14.0334 10.4483C16.0821 9.75577 18.2825 9.37103 20.407 9.37103C28.9051 9.37103 36.6444 14.8343 39.5277 22.9138C39.6036 23.0677 39.5277 23.2216 39.3759 23.2985C38.8448 23.5294 38.3137 23.6833 37.7825 23.6063C37.3273 23.5294 36.9479 23.6063 36.5685 23.7602C36.265 23.8372 35.9615 24.068 35.5821 24.2219C35.4304 24.2989 35.2786 24.3758 35.051 24.4528C34.7475 24.6067 34.444 24.8375 34.2164 25.0683C33.7611 25.53 33.1541 25.9917 32.016 26.1456C30.4226 26.2995 28.5257 26.6842 27.0841 27.6846C25.5665 28.7618 22.3039 29.6852 21.014 29.6082C19.8759 29.5313 19.6482 29.5313 19.193 29.916C18.5101 30.4547 17.4478 30.7625 16.0062 30.7625C15.2474 30.7625 15.0198 31.1472 14.7163 31.6089C14.4887 31.9167 14.2611 32.3014 13.8058 32.5323C13.4264 32.6861 12.9712 32.6861 12.5159 32.6861C11.833 32.6861 11.226 32.6861 10.619 33.0709C9.40502 33.9943 8.26688 33.9943 6.74937 33.6865C6.14236 33.5326 5.45948 33.9173 4.70072 34.379C4.39722 34.5329 4.09372 34.6868 3.79021 34.8407C3.25908 35.1485 2.50033 35.4563 1.66569 35.4563ZM1.13456 34.8407C2.12095 34.9946 2.95558 34.6868 3.56259 34.379C3.86609 34.2251 4.16959 34.0712 4.4731 33.9173C5.30773 33.4556 6.14236 32.9939 6.977 33.1478C8.64626 33.4556 9.40502 33.3787 10.3914 32.6092C11.1502 32.0706 11.9848 32.0706 12.6677 32.0706C13.0471 32.0706 13.4264 32.0706 13.8058 31.9936C14.1093 31.9167 14.2611 31.6089 14.4887 31.3011C14.7922 30.8394 15.1716 30.2238 16.2338 30.2238C17.8272 30.2238 18.6619 29.8391 19.0412 29.5313C19.6482 28.9927 20.1035 28.9927 21.2416 29.0696C22.3039 29.1466 25.4148 28.3001 26.9323 27.2229C28.5257 26.1456 30.4226 25.7609 32.1677 25.607C33.1541 25.53 33.5335 25.0683 34.0646 24.6836C34.3681 24.4528 34.6716 24.145 35.051 23.9911C35.2028 23.9141 35.3545 23.8372 35.5063 23.7602C35.8856 23.6063 36.1892 23.3755 36.5685 23.2985C37.0238 23.1446 37.5549 23.0677 38.0102 23.1447C38.3895 23.1447 38.693 23.1447 39.0724 22.9908C36.0374 15.1421 28.6016 9.98661 20.407 9.98661C18.2825 9.98661 16.158 10.2944 14.1852 10.9869C4.39722 14.2187 -1.29346 24.6836 1.13456 34.8407Z" fill="#724B00"/>
<path d="M28.7529 21.2979C26.856 25.6839 22.3035 28.531 17.3716 27.8385C12.4396 27.1459 8.72174 23.2216 8.11473 18.4508C9.784 22.2982 13.2743 25.1453 17.6751 25.7609C22 26.3764 26.1732 24.5297 28.7529 21.2979Z" fill="#724B00"/>
<path d="M29.9673 22.2982C29.512 22.1443 29.0568 21.8365 28.7533 21.4518C28.4497 20.9901 28.298 20.5284 28.2221 20.0667C28.3739 20.5284 28.5256 20.9901 28.8291 21.3749C29.2085 21.6826 29.5879 22.0674 29.9673 22.2982Z" fill="#724B00"/>
<path d="M6.67279 19.0664C7.12805 19.0664 7.65918 18.9125 8.03856 18.5278C8.49381 18.22 8.72144 17.7583 8.87319 17.2966C8.64556 17.6814 8.34206 18.0661 7.88681 18.3739C7.5833 18.7586 7.12805 18.9125 6.67279 19.0664Z" fill="#724B00"/>
<path d="M24.3517 17.1427C24.1241 18.8356 23.2894 20.1437 22.5307 20.0667C21.7719 19.9898 21.3167 18.5278 21.5443 16.758C21.7719 14.9882 22.6066 13.757 23.3653 13.834C24.1241 13.9109 24.5793 15.4499 24.3517 17.1427ZM23.8964 15.296C23.7447 15.296 23.5171 15.6038 23.4412 15.9885C23.3653 16.3733 23.5171 16.758 23.6688 16.758C23.8206 16.758 24.0482 16.4502 24.1241 16.0655C24.1999 15.6807 24.1241 15.296 23.8964 15.296Z" fill="#724B00"/>
<path d="M16.2334 15.9885C16.0058 17.6814 15.1711 18.9895 14.4124 18.9125C13.6536 18.8356 13.1983 17.3736 13.426 15.6038C13.6536 13.9109 14.4882 12.6028 15.247 12.6798C16.0058 12.8337 16.461 14.2957 16.2334 15.9885ZM15.3987 14.7574C15.1711 14.7574 15.0194 15.0652 14.9435 15.4499C14.8676 15.9116 15.0194 16.2194 15.1711 16.2963C15.3987 16.2963 15.5505 15.9885 15.6264 15.6038C15.7022 15.1421 15.6264 14.7574 15.3987 14.7574Z" fill="#724B00"/>
<path d="M11.3769 8.21682C11.2251 8.52461 11.3769 8.90935 11.6804 9.06324C11.7562 9.14019 11.8321 9.14019 11.9839 9.14019C12.2115 9.14019 12.4391 8.9863 12.5909 8.75545C13.5773 6.60092 13.122 5.83144 12.515 5.13892C12.2115 4.83113 12.0597 4.60028 12.5909 3.52302C12.7426 3.21523 12.5909 2.83049 12.2874 2.67659C11.9839 2.5227 11.6045 2.67659 11.4527 2.98438C10.6181 4.75418 11.0734 5.44671 11.6045 6.06229C11.8321 6.37008 12.0597 6.67787 11.3769 8.21682Z" fill="#724B00"/>
<path d="M24.4271 8.21682C24.2754 8.52461 24.4271 8.90935 24.7306 9.06324C24.8065 9.14019 24.8824 9.14019 25.0341 9.14019C25.2618 9.14019 25.4894 8.9863 25.6411 8.75545C26.6275 6.60092 26.1723 5.83144 25.5653 5.13892C25.2618 4.83113 25.11 4.60028 25.6411 3.52302C25.7929 3.21523 25.6412 2.83049 25.3376 2.67659C25.0341 2.5227 24.6548 2.67659 24.503 2.98438C23.6684 4.75418 24.1236 5.44671 24.6548 6.06229C24.8824 6.37008 25.1859 6.67787 24.4271 8.21682Z" fill="#724B00"/>
<path d="M17.902 5.6006C17.7502 5.90839 17.902 6.29313 18.2055 6.44702C18.2814 6.52397 18.3572 6.52397 18.509 6.52397C18.7366 6.52397 18.9642 6.37008 19.116 6.13923C20.1024 3.9847 19.6471 3.21522 19.0401 2.5227C18.7366 2.21491 18.5849 1.98406 19.116 0.906797C19.2677 0.599007 19.116 0.214269 18.8125 0.0603738C18.509 -0.0935214 18.1296 0.0603738 17.9779 0.368164C17.1432 2.13796 17.5985 2.83049 18.1296 3.44607C18.3572 3.75386 18.5849 4.06165 17.902 5.6006Z" fill="#724B00"/>
<path d="M31.0293 52H9.70826C5.23159 52 1.58956 48.3065 1.58956 43.7666V37.2261C1.58956 37.0722 1.74131 36.9183 1.89306 36.9183H4.70046C5.00396 36.9183 5.38334 36.9183 5.76272 36.9183C6.97673 36.8413 8.19074 36.8413 8.79775 37.0722C9.70826 37.4569 11.8328 37.5339 12.1363 37.2261C12.4398 36.9183 13.0468 36.9183 13.3503 36.9183C14.0332 36.9952 14.8678 37.303 15.2472 37.8416C15.3231 37.9955 15.4748 37.9955 16.0818 37.7647C16.613 37.5339 17.2958 37.303 18.2063 37.38C19.2686 37.5339 19.8756 37.38 20.4826 37.2261C20.7861 37.1491 21.0896 37.0722 21.3931 37.0722C22.3795 36.9952 25.9457 37.2261 27.9943 37.8416C29.1325 38.1494 29.5877 37.9955 30.1947 37.6877C30.65 37.4569 31.1052 37.2261 31.7881 37.2261C32.6227 37.1491 33.1539 37.4569 33.6091 37.6877C34.1402 37.9186 34.4437 38.0725 35.1266 37.8416C35.9613 37.5339 36.7959 37.7647 37.4788 37.9186C38.1617 38.1494 38.541 38.1494 38.6928 37.9186C38.7687 37.8416 38.9204 37.7647 38.9963 37.7647C39.148 37.7647 39.2239 37.9186 39.2239 38.0725V43.7666C39.148 48.3065 35.506 52 31.0293 52ZM2.19656 37.5339V43.7666C2.19656 47.9987 5.61097 51.3844 9.70826 51.3844H31.0293C35.2025 51.3844 38.541 47.9218 38.541 43.7666V38.6111C38.1617 38.6881 37.7064 38.5342 37.2511 38.4572C36.6441 38.3033 35.8854 38.0725 35.2784 38.3803C34.3679 38.765 33.8367 38.4572 33.3056 38.2264C32.9262 37.9955 32.471 37.8416 31.7881 37.8416C31.1811 37.8416 30.8017 38.0725 30.3465 38.2264C29.7395 38.5342 29.0566 38.842 27.6908 38.4572C25.6422 37.8416 22.1519 37.6108 21.3172 37.6877C21.0137 37.6877 20.7861 37.7647 20.4826 37.8416C19.8756 37.9955 19.1927 38.1494 17.9787 37.9955C17.22 37.9186 16.6129 38.1494 16.1577 38.3033C15.6266 38.5342 15.0196 38.765 14.6402 38.2264C14.4126 37.9186 13.8055 37.6108 13.1985 37.6108C12.8192 37.6108 12.5157 37.6877 12.4398 37.7647C11.8328 38.3803 9.17713 37.9955 8.49425 37.7647C7.96312 37.5339 6.67323 37.6108 5.68684 37.6108C5.30747 37.6108 4.92809 37.6108 4.62458 37.6108H2.19656V37.5339Z" fill="#724B00"/>
</svg>
