<svg width="186" height="186" viewBox="0 0 186 186" fill="none" xmlns="http://www.w3.org/2000/svg">
<path d="M49.7538 15.9085V9.45423C49.7524 8.60626 49.9182 7.76636 50.2416 6.98267C50.565 6.19897 51.0397 5.48691 51.6385 4.8873C52.2373 4.28769 52.9484 3.81234 53.7311 3.48848C54.5137 3.16462 55.3525 2.99862 56.1993 3.00001H126.942C127.789 2.99862 128.628 3.16454 129.412 3.48827C130.195 3.812 130.907 4.2872 131.506 4.88667C132.106 5.48614 132.582 6.19811 132.906 6.98186C133.231 7.76561 133.398 8.60576 133.398 9.45423V15.9085M50.9669 65.0704L46.7473 31.7958M136.394 31.7958L131.341 71.6303M40.0064 80.8099H44.6902M76.6014 80.8099H81.2746M58.3091 86.9789H62.9824M53.4038 136.69H19.1718C16.6902 136.69 14.3102 135.703 12.5554 133.946C10.8006 132.189 9.81473 129.805 9.81473 127.32C9.81183 126.09 10.0528 124.871 10.5236 123.734C10.9944 122.597 11.6857 121.565 12.5575 120.697C13.4239 119.824 14.4546 119.132 15.5899 118.66C16.7253 118.189 17.9427 117.948 19.1718 117.951H34.7107L53.4038 136.69ZM53.4038 136.69L88.6379 136.69M53.4038 136.69L72.118 117.951H85.7264M88.6379 136.69L85.7264 117.951M88.6379 136.69L92.4462 161.155M85.7264 117.951L83.3845 102.866M19.4356 117.951V102.866M19.4356 151.616V136.69M92.4462 161.155L95.843 183M92.4462 161.155L95.8957 183H27.6533C23.2197 183 18.9673 181.238 15.8302 178.1C12.6932 174.963 10.928 170.707 10.9224 166.268V151.637H71.1263L86.6863 167.324L92.4462 161.165M183 183H3M120.159 77.419C117.202 73.5728 113.402 70.458 109.053 68.3152C104.703 66.1723 99.9203 65.0586 95.0729 65.0599H41.3567C32.9632 65.0599 24.9136 68.3986 18.9786 74.3417C13.0435 80.2847 9.70924 88.3453 9.70924 96.75V102.887H88.9228C91.3522 102.881 93.7321 103.575 95.7785 104.886C97.8249 106.197 99.4512 108.07 100.463 110.282C101.759 113.098 103.439 115.722 105.453 118.077C109.557 122.832 114.923 126.322 120.929 128.144C124.009 129.07 127.207 129.544 130.423 129.549C136.752 129.562 142.95 127.752 148.281 124.336C153.611 120.92 157.849 116.041 160.488 110.282C161.5 108.07 163.127 106.197 165.173 104.886C167.22 103.575 169.599 102.881 172.029 102.887H176.576L164.117 182.968M151.859 121.658V86.9789M151.859 86.9789H167.313V103.764M151.859 86.9789V77.419H136.383M136.383 77.419V128.989M136.383 77.419V71.6303H120.918V77.419M120.918 77.419V128.123M120.918 77.419H105.443V89.9155M105.443 89.9155V118.056M105.443 89.9155H89.9777V102.919M47.011 15.9085H136.13C137.795 15.9085 139.391 16.5707 140.568 17.7494C141.746 18.9281 142.407 20.5267 142.407 22.1937V31.7958H40.7343V22.1937C40.7343 20.5267 41.3956 18.9281 42.5727 17.7494C43.7498 16.5707 45.3463 15.9085 47.011 15.9085ZM142.671 156.19C142.671 164.014 136.337 170.356 128.524 170.356C120.711 170.356 114.378 164.014 114.378 156.19C114.378 148.367 120.711 142.025 128.524 142.025C136.337 142.025 142.671 148.367 142.671 156.19Z" stroke="#724B00" stroke-width="5" stroke-linecap="round" stroke-linejoin="round"/>
</svg>
