<svg width="186" height="204" viewBox="0 0 186 204" fill="none" xmlns="http://www.w3.org/2000/svg">
<path id="Vector" d="M89.9091 177.868L169.612 92.119M89.9091 177.868L10.2179 92.119M89.9091 177.868L65.4177 92.119M89.9091 177.868L114.412 92.119L143.06 45.351M169.612 92.119L143.06 45.351M169.612 92.119H10.2179M143.06 45.351H36.7699M36.7699 45.351L10.2179 92.119M36.7699 45.351L65.4177 92.119M65.4177 92.119L89.8502 45.351L114.283 92.119M3 20.3625C7.72799 20.3625 12.2623 22.2444 15.6055 25.5942C18.9487 28.9441 20.8269 33.4875 20.8269 38.2249C20.8269 33.4875 22.7051 28.9441 26.0483 25.5942C29.3915 22.2444 33.9258 20.3625 38.6538 20.3625C33.9258 20.3625 29.3915 18.4805 26.0483 15.1307C22.7051 11.7808 20.8269 7.23742 20.8269 2.5C20.8269 7.23742 18.9487 11.7808 15.6055 15.1307C12.2623 18.4805 7.72799 20.3625 3 20.3625ZM154.022 41.2688C157.865 41.272 161.548 42.8035 164.264 45.5269C166.98 48.2502 168.505 51.9426 168.505 55.7924C168.508 51.9415 170.037 48.2492 172.754 45.5261C175.472 42.8031 179.157 41.272 183 41.2688C179.156 41.2688 175.469 39.7387 172.751 37.015C170.032 34.2913 168.505 30.5972 168.505 26.7453C168.505 30.5951 166.98 34.2875 164.264 37.0108C161.548 39.7342 157.865 41.2657 154.022 41.2688ZM120.512 176.393C123.805 176.389 127.067 177.035 130.111 178.294C133.155 179.554 135.922 181.403 138.252 183.734C140.583 186.066 142.431 188.836 143.693 191.884C144.954 194.932 145.604 198.2 145.604 201.5C145.604 194.841 148.243 188.455 152.942 183.747C157.641 179.039 164.015 176.393 170.66 176.393C164.015 176.393 157.641 173.748 152.942 169.04C148.243 164.332 145.604 157.946 145.604 151.287C145.604 154.587 144.954 157.855 143.693 160.903C142.431 163.951 140.583 166.721 138.252 169.052C135.922 171.384 133.155 173.233 130.111 174.493C127.067 175.752 123.805 176.398 120.512 176.393Z" stroke="#724B00" stroke-width="5" stroke-linecap="round" stroke-linejoin="round"/>
</svg>
