<svg width="186" height="230" viewBox="0 0 186 230" fill="none" xmlns="http://www.w3.org/2000/svg">
<path d="M92.9934 133.327H24.3517L11.0135 154.243H79.6684L92.9934 133.327ZM92.9934 133.327V227.5M92.9934 133.327H161.648L174.987 154.243H106.332L92.9934 133.327ZM92.9934 227.5H24.3517V154.23M92.9934 227.5H161.648V154.23M35.2252 217.386H49.8155M42.5138 217.386V206.941M145.384 184.692H106.912M145.384 170.312H119.024M57.3018 94.2166C57.3018 94.2166 73.6714 104.107 73.6714 122.21M128.711 94.2166C128.711 94.2166 112.329 104.107 112.329 122.21M92.9934 93.5563V122.21M46.8369 29.3046V3.25264H48.2735L63.4174 29.7271H64.5904V2.5M94.7991 29.2121H81.0786V3.00176H94.7991M81.0786 15.8627H91.7677M139.163 2.5L131.413 29.7271H129.963L122.332 2.5L114.701 29.7271H113.251L105.501 2.5M25.0107 72.39L15.1388 44.7403H12.8719L3 72.39M21.9002 63.6752H6.11049M158.34 72.39L148.468 44.7403H146.201L136.329 72.39M155.23 63.6752H139.44M108.098 44.7403L117.97 72.39H120.237L130.108 44.7403M37.0968 72.007V44.3574M37.0968 44.3574L44.3854 44.3574C45.2675 44.3557 46.1412 44.5282 46.9567 44.8652C47.7722 45.2022 48.5133 45.697 49.1376 46.3212C49.762 46.9455 50.2573 47.687 50.5953 48.5033C50.9332 49.3196 51.1072 50.1946 51.1072 51.0783C51.1072 52.8609 50.4004 54.5704 49.1423 55.8308C47.8842 57.0912 46.1778 57.7993 44.3985 57.7993H37.0968V44.3574ZM43.7395 57.7861C43.7395 57.7861 47.6145 58.2483 49.7365 63.2923C51.8585 68.3363 53.6905 72.7729 53.6905 72.7729M66.172 72.007V44.3574M66.172 44.3574H73.5133C75.2719 44.3886 76.9479 45.1104 78.1805 46.3674C79.4131 47.6245 80.1036 49.3162 80.1033 51.0783C80.1001 52.8382 79.4081 54.5265 78.1759 55.7808C76.9437 57.035 75.2696 57.755 73.5133 57.7861H66.172V44.3574ZM72.8147 57.7861C72.8147 57.7861 76.6897 58.2483 78.8248 63.2923C80.96 68.3363 82.7789 72.7729 82.7789 72.7729M95.8667 44.7403V72.39M170.888 45.1496V71.9806H183M35.2911 192.667H49.7892V199.639C49.7892 201.576 49.0213 203.433 47.6544 204.802C46.2875 206.172 44.4337 206.941 42.5006 206.941C40.5813 206.92 38.7477 206.142 37.3979 204.775C36.0481 203.407 35.291 201.562 35.2911 199.639V192.667ZM131.809 200.643H149.088V214.018H131.809V200.643ZM29.9796 93.5563L35.0539 103.856L46.4019 105.519L38.1907 113.534L40.1282 124.85L29.9796 119.503L19.8309 124.85L21.7684 113.534L13.5572 105.519L24.9052 103.856L29.9796 93.5563ZM156.007 93.5563L150.946 103.856L139.598 105.519L147.796 113.534L145.859 124.85L156.007 119.503L166.169 124.85L164.232 113.534L172.443 105.519L161.095 103.856L156.007 93.5563Z" stroke="#724B00" stroke-width="5" stroke-linecap="round" stroke-linejoin="round"/>
</svg>
