<svg width="22" height="22" viewBox="0 0 22 22" fill="none" xmlns="http://www.w3.org/2000/svg">
<path id="Vector" d="M1 0.57C0.486375 0.57 0.07 0.986375 0.07 1.5C0.07 2.01362 0.486375 2.43 1 2.43V0.57ZM3.97536 1.5L4.86727 1.23657C4.75052 0.841289 4.38753 0.57 3.97536 0.57V1.5ZM7.61553 13.825L6.72362 14.0884C6.84036 14.4837 7.20336 14.755 7.61553 14.755V13.825ZM17.3226 13.825V14.755C17.6904 14.755 18.0236 14.5382 18.1727 14.2021L17.3226 13.825ZM21 5.53564L21.8501 5.91277C21.9777 5.62511 21.9512 5.29242 21.7796 5.02861C21.6081 4.76479 21.3147 4.60564 21 4.60564V5.53564ZM9.75407 4.60564C9.24044 4.60564 8.82407 5.02202 8.82407 5.53564C8.82407 6.04927 9.24044 6.46564 9.75407 6.46564V4.60564ZM19.8935 18.6306H18.9635C18.9635 19.1475 18.543 19.57 18.02 19.57V20.5V21.43C19.5664 21.43 20.8235 20.1786 20.8235 18.6306H19.8935ZM18.02 20.5V19.57C17.4969 19.57 17.0764 19.1475 17.0764 18.6306H16.1464H15.2164C15.2164 20.1786 16.4736 21.43 18.02 21.43V20.5ZM16.1464 18.6306H17.0764C17.0764 18.1138 17.4969 17.6912 18.02 17.6912V16.7612V15.8312C16.4736 15.8312 15.2164 17.0826 15.2164 18.6306H16.1464ZM18.02 16.7612V17.6912C18.543 17.6912 18.9635 18.1138 18.9635 18.6306H19.8935H20.8235C20.8235 17.0826 19.5664 15.8312 18.02 15.8312V16.7612ZM8.61041 18.6306H7.68041C7.68041 19.1475 7.25992 19.57 6.73687 19.57V20.5V21.43C8.28327 21.43 9.54041 20.1786 9.54041 18.6306H8.61041ZM6.73687 20.5V19.57C6.21381 19.57 5.79332 19.1475 5.79332 18.6306H4.86332H3.93332C3.93332 20.1786 5.19046 21.43 6.73687 21.43V20.5ZM4.86332 18.6306H5.79332C5.79332 18.1138 6.21381 17.6912 6.73687 17.6912V16.7612V15.8312C5.19046 15.8312 3.93332 17.0826 3.93332 18.6306H4.86332ZM6.73687 16.7612V17.6912C7.25992 17.6912 7.68041 18.1138 7.68041 18.6306H8.61041H9.54041C9.54041 17.0826 8.28327 15.8312 6.73687 15.8312V16.7612ZM1 1.5V2.43H3.97536V1.5V0.57H1V1.5ZM3.97536 1.5L3.08345 1.76343L6.72362 14.0884L7.61553 13.825L8.50744 13.5615L4.86727 1.23657L3.97536 1.5ZM7.61553 13.825V14.755H17.3226V13.825V12.895H7.61553V13.825ZM17.3226 13.825L18.1727 14.2021L21.8501 5.91277L21 5.53564L20.1499 5.15852L16.4725 13.4478L17.3226 13.825ZM21 5.53564V4.60564H9.75407V5.53564V6.46564H21V5.53564Z" fill="white"/>
</svg>
